<svg width="18" height="25" viewBox="0 0 18 25" fill="none" xmlns="http://www.w3.org/2000/svg">
<path d="M5.25 9.25C5.25 7.1875 6.89062 5.5 9 5.5C11.0625 5.5 12.75 7.1875 12.75 9.25C12.75 11.3594 11.0625 13 9 13C6.89062 13 5.25 11.3594 5.25 9.25ZM9 6.25C7.3125 6.25 6 7.60938 6 9.25C6 10.9375 7.3125 12.25 9 12.25C10.6406 12.25 12 10.9375 12 9.25C12 7.60938 10.6406 6.25 9 6.25ZM18 9.25C18 13.375 12.5156 20.6406 10.0781 23.6875C9.51562 24.3906 8.4375 24.3906 7.875 23.6875C5.4375 20.6406 0 13.375 0 9.25C0 4.28125 3.98438 0.25 9 0.25C13.9688 0.25 18 4.28125 18 9.25ZM9 1C4.40625 1 0.75 4.70312 0.75 9.25C0.75 10.1406 1.03125 11.2656 1.54688 12.5312C2.10938 13.7969 2.8125 15.1562 3.65625 16.4688C5.29688 19.1406 7.26562 21.7188 8.4375 23.2188C8.71875 23.5469 9.23438 23.5469 9.51562 23.2188C10.6875 21.7188 12.6562 19.1406 14.2969 16.4688C15.1406 15.1562 15.8438 13.7969 16.4062 12.5312C16.9219 11.2656 17.25 10.1406 17.25 9.25C17.25 4.70312 13.5469 1 9 1Z" fill="#0D121F"/>
</svg>
