<svg width="11" height="13" viewBox="0 0 11 13" fill="none" xmlns="http://www.w3.org/2000/svg">
<path d="M10.4766 6.00391C10.3125 6.16797 10.0938 6.25 9.875 6.25C9.62891 6.25 9.41016 6.16797 9.24609 6.00391L6.375 3.13281V11.5C6.375 11.9922 5.96484 12.375 5.5 12.375C5.0625 12.375 4.625 11.9922 4.625 11.5V3.13281L1.72656 6.00391C1.39844 6.35938 0.824219 6.35938 0.496094 6.00391C0.140625 5.67578 0.140625 5.10156 0.496094 4.77344L4.87109 0.398438C5.19922 0.0429688 5.77344 0.0429688 6.10156 0.398438L10.4766 4.77344C10.832 5.10156 10.832 5.67578 10.4766 6.00391Z" fill="#7972F3"/>
</svg>
