<svg width="20" height="19" viewBox="0 0 20 19" fill="none" xmlns="http://www.w3.org/2000/svg">
<g clip-path="url(#clip0_407_2625)">
<path d="M8.24834 18.9339C7.20848 18.7976 5.9207 18.38 5.04288 17.8945C4.82564 17.7743 4.63883 17.676 4.62776 17.676C4.56951 17.676 3.82319 17.1425 3.47914 16.8549C2.6706 16.1791 1.96942 15.3863 1.45362 14.5647C1.20182 14.1636 0.666533 13.1158 0.666533 13.0239C0.666533 12.9986 0.622202 12.8745 0.568019 12.7482C0.411783 12.3838 0.193507 11.4944 0.0934698 10.8145C-0.210309 8.74972 0.235612 6.48308 1.29658 4.69896C1.57126 4.23707 1.88445 3.76899 2.04026 3.58751C2.50252 3.04908 2.81999 2.71907 3.21177 2.36969C3.64267 1.98542 3.73563 1.91122 4.04501 1.70458C5.89709 0.467588 7.74936 -0.0704207 9.8883 0.00734488C10.8774 0.0433037 12.1013 0.279161 12.7562 0.559985C12.8826 0.614166 13.0066 0.658496 13.0319 0.658496C13.1238 0.658496 14.1717 1.19378 14.5728 1.44558C15.6449 2.11869 16.6873 3.1254 17.3942 4.17028C17.4936 4.31726 17.7049 4.67612 17.8637 4.96774C19.2233 7.46423 19.3884 10.4197 18.3173 13.086C18.052 13.7462 17.5524 14.6765 17.4392 14.7209C17.417 14.7296 17.3988 14.7622 17.3988 14.7933C17.3988 14.8909 16.6591 15.8044 16.2399 16.2246C15.815 16.6504 14.8992 17.3908 14.7974 17.3908C14.7641 17.3908 14.7369 17.4086 14.7369 17.4304C14.7369 17.5035 13.6805 18.0705 13.1244 18.2958C12.2556 18.6478 11.47 18.848 10.53 18.9571C9.96307 19.0228 8.83943 19.0114 8.24834 18.9339ZM11.047 18.0805C14.1266 17.5177 16.6992 15.3086 17.7475 12.3268C17.8636 11.9965 18.004 11.4431 18.109 10.9023C18.1955 10.4564 18.2261 9.208 18.1654 8.59682C17.946 6.38439 16.8309 4.2843 15.1096 2.8413C14.7347 2.52699 14.3571 2.24335 14.1902 2.15059C14.1379 2.12153 13.9561 2.01772 13.7862 1.91989C12.9086 1.41473 11.8702 1.05138 10.839 0.888632C10.5944 0.850031 10.041 0.775634 9.43672 0.775866C8.58561 0.776225 8.35889 0.841709 7.89842 0.934656C7.37453 1.04041 6.73343 1.22193 6.44202 1.34703C6.36359 1.3807 6.14987 1.4695 5.9671 1.54437C5.51463 1.72972 4.66294 2.24189 4.15418 2.63459C3.71626 2.97261 3.00668 3.66024 2.77462 3.97146C2.70045 4.07093 2.62714 4.163 2.61171 4.17608C2.45147 4.31178 1.72351 5.54135 1.54229 5.9824C1.47246 6.15234 1.388 6.35555 1.35459 6.43398C1.22925 6.72825 1.04808 7.36822 0.942308 7.89038C0.847557 8.35812 0.735248 8.59145 0.736051 9.49717C0.736751 10.2926 0.855099 10.6336 0.919722 10.9884C1.10817 12.0228 1.56091 13.2353 2.04124 13.992C2.10762 14.0966 2.18377 14.2176 2.21045 14.261C2.81607 15.2449 4.02737 16.3824 5.19864 17.0673C6.1254 17.6092 7.34884 18.0696 8.55732 18.1686C9.56781 18.2513 9.80334 18.2886 11.047 18.0805ZM8.88536 16.2939C7.77888 16.2023 6.61303 15.7834 5.6618 15.1357C4.08687 14.0633 3.02954 12.3576 2.75625 10.4484C2.6618 9.78863 2.71972 8.49539 2.87003 7.90756C3.04768 7.21286 3.53505 6.04051 3.66708 5.99032C3.69001 5.98161 3.70876 5.94902 3.70876 5.91789C3.70876 5.82923 4.45327 4.89336 4.74926 4.60996C5.04404 4.32772 5.86225 3.70073 5.93579 3.70073C5.96149 3.70073 5.98965 3.68197 5.99836 3.65904C6.0196 3.60317 6.61444 3.30729 7.06687 3.12757C7.78016 2.84422 8.30926 2.74292 9.22053 2.71524C10.5601 2.67456 11.3485 2.82967 12.4494 3.35051C12.8382 3.53444 13.527 3.94143 13.596 4.02797C13.6091 4.04437 13.6947 4.11429 13.7862 4.18335C14.204 4.49873 14.7877 5.13099 15.1437 5.65376C16.4851 7.62381 16.7027 10.2255 15.7039 12.3521C15.5346 12.7125 15.1114 13.4414 15.0073 13.5519C14.9762 13.5849 14.8689 13.7137 14.7688 13.8382C14.5244 14.1423 14.1981 14.4696 13.8812 14.7286C13.7374 14.8461 13.5928 14.9678 13.5598 14.9991C13.4491 15.1039 12.7199 15.5266 12.3601 15.6944C11.6519 16.0249 10.9693 16.2051 10.0853 16.2949C9.5507 16.3493 9.55426 16.3493 8.88536 16.2939V16.2939ZM8.84253 14.3248L8.8663 13.4691H9.22281H9.57932L9.60309 14.3248L9.62685 15.1804H10.126H10.6251L10.6489 14.3248L10.6726 13.4691L10.8628 13.4576C11.3767 13.4265 11.9855 13.3355 12.2472 13.2507C13.2735 12.9181 13.8047 12.1514 13.8084 10.9973C13.8097 10.6012 13.7901 10.4709 13.6911 10.2159C13.5434 9.83554 13.217 9.49317 12.7866 9.26708C12.6174 9.1782 12.473 9.10091 12.4656 9.09533C12.4583 9.08974 12.576 8.9583 12.7271 8.80323C13.1023 8.41823 13.2207 8.16258 13.2513 7.67196C13.2824 7.17406 13.2076 6.85547 12.9912 6.56411C12.6159 6.05889 11.8253 5.68114 10.9222 5.57558L10.6489 5.54363V4.6681V3.79257L10.1379 3.80607L9.62685 3.81956L9.60309 4.65142L9.57932 5.48328H9.22281H8.8663L8.84253 4.65142L8.81876 3.81956L8.30776 3.80607L7.79676 3.79257V4.64981V5.50705H6.77865C6.21869 5.50705 5.7267 5.52004 5.68535 5.5359C5.62344 5.55965 5.61016 5.65224 5.61016 6.05996C5.61016 6.64691 5.58811 6.62693 6.25188 6.64157C6.73987 6.65233 6.92019 6.70639 6.95973 6.8538C6.97493 6.91048 6.98719 8.10126 6.98696 9.49997C6.98648 12.5589 7.05846 12.269 6.29041 12.3045L5.77653 12.3283L5.73464 12.8125C5.7116 13.0788 5.70558 13.3302 5.72126 13.3711C5.7459 13.4353 5.88893 13.4454 6.77327 13.4454H7.79676V14.2931C7.79676 14.7593 7.81173 15.1557 7.83001 15.174C7.8483 15.1923 8.07825 15.2012 8.34101 15.1938L8.81876 15.1804L8.84253 14.3248ZM8.87422 12.1778C8.85679 12.1604 8.84253 11.6451 8.84253 11.0329V9.91963L9.85264 9.9375C10.7088 9.95267 10.8954 9.96907 11.0767 10.0452C11.5653 10.2503 11.7429 10.4939 11.7411 10.957C11.7388 11.5725 11.4039 11.9622 10.7202 12.1448C10.4727 12.2109 8.93482 12.2384 8.87422 12.1778V12.1778ZM8.90542 8.7631C8.85342 8.72493 8.84309 8.51712 8.85341 7.71733L8.86629 6.71919L9.31788 6.70482C10.2206 6.67607 10.8437 6.8436 11.0828 7.17933C11.2289 7.38451 11.2629 7.85298 11.1523 8.13543C11.0593 8.37274 10.9681 8.4867 10.7439 8.6454C10.5867 8.75672 10.5334 8.7645 9.77394 8.78697C9.27319 8.80177 8.94586 8.79279 8.90542 8.7631L8.90542 8.7631Z" fill="#F49526"/>
</g>
<defs>
<clipPath id="clip0_407_2625">
<rect width="19.0167" height="19" fill="white"/>
</clipPath>
</defs>
</svg>
