<svg width="22" height="25" viewBox="0 0 22 25" fill="none" xmlns="http://www.w3.org/2000/svg">
<path d="M6.125 0.75C6.3125 0.75 6.5 0.9375 6.5 1.125V3.75H15.5V1.125C15.5 0.9375 15.6406 0.75 15.875 0.75C16.0625 0.75 16.25 0.9375 16.25 1.125V3.75H18.5C20.1406 3.75 21.5 5.10938 21.5 6.75V21.75C21.5 23.4375 20.1406 24.75 18.5 24.75H3.5C1.8125 24.75 0.5 23.4375 0.5 21.75V6.75C0.5 5.10938 1.8125 3.75 3.5 3.75H5.75V1.125C5.75 0.9375 5.89062 0.75 6.125 0.75ZM20.75 9.75H1.25V21.75C1.25 23.0156 2.23438 24 3.5 24H18.5C19.7188 24 20.75 23.0156 20.75 21.75V9.75ZM5.75 6.375V4.5H3.5C2.23438 4.5 1.25 5.53125 1.25 6.75V9H20.75V6.75C20.75 5.53125 19.7188 4.5 18.5 4.5H16.25V6.375C16.25 6.60938 16.0625 6.75 15.875 6.75C15.6406 6.75 15.5 6.60938 15.5 6.375V4.5H6.5V6.375C6.5 6.60938 6.3125 6.75 6.125 6.75C5.89062 6.75 5.75 6.60938 5.75 6.375Z" fill="#0D121F"/>
</svg>
