<svg width="16" height="16" viewBox="0 0 16 16" fill="none" xmlns="http://www.w3.org/2000/svg">
<path d="M15.8594 14.8906C16 15.0312 16 15.2656 15.8594 15.4062C15.7188 15.5469 15.4844 15.5469 15.3438 15.4062L8.5 8.5625L1.60938 15.4062C1.46875 15.5469 1.23438 15.5469 1.09375 15.4062C0.953125 15.2656 0.953125 15.0312 1.09375 14.8906L7.9375 8L1.09375 1.15625C0.953125 1.01562 0.953125 0.78125 1.09375 0.640625C1.23438 0.5 1.46875 0.5 1.60938 0.640625L8.5 7.48438L15.3438 0.640625C15.4844 0.5 15.7188 0.5 15.8594 0.640625C16 0.78125 16 1.01562 15.8594 1.15625L9.01562 8L15.8594 14.8906Z" fill="black"/>
</svg>
