<svg width="15" height="15" viewBox="0 0 15 15" fill="none" xmlns="http://www.w3.org/2000/svg">
<path d="M0.5 7.75C0.5 3.89453 3.61719 0.75 7.5 0.75C11.3555 0.75 14.5 3.89453 14.5 7.75C14.5 11.6328 11.3555 14.75 7.5 14.75C3.61719 14.75 0.5 11.6328 0.5 7.75ZM5.28516 6.46484L6.57031 7.75L5.28516 9.03516C5.01172 9.30859 5.01172 9.71875 5.28516 9.96484C5.53125 10.2383 5.94141 10.2383 6.1875 9.96484L7.47266 8.67969L8.78516 9.96484C9.03125 10.2383 9.44141 10.2383 9.6875 9.96484C9.96094 9.71875 9.96094 9.30859 9.6875 9.03516L8.40234 7.75L9.6875 6.46484C9.96094 6.21875 9.96094 5.80859 9.6875 5.53516C9.44141 5.28906 9.03125 5.28906 8.78516 5.53516L7.47266 6.84766L6.1875 5.53516C5.94141 5.28906 5.53125 5.28906 5.28516 5.53516C5.01172 5.80859 5.01172 6.21875 5.28516 6.46484Z" fill="#FDFDFE"/>
</svg>
