<svg width="74" height="74" viewBox="0 0 74 74" fill="none" xmlns="http://www.w3.org/2000/svg">
<rect width="74" height="74" rx="37" fill="#F3F5F5"/>
<path d="M38.75 37.5C38.75 38.4844 37.9297 39.25 37 39.25C36.0156 39.25 35.25 38.4844 35.25 37.5C35.25 36.5703 36.0156 35.75 37 35.75C37.9297 35.75 38.75 36.5703 38.75 37.5ZM29.125 37.5C29.125 33.1797 32.625 29.625 37 29.625C41.3203 29.625 44.875 33.1797 44.875 37.5C44.875 41.875 41.3203 45.375 37 45.375C32.625 45.375 29.125 41.875 29.125 37.5ZM37 41.875C39.4062 41.875 41.375 39.9609 41.375 37.5C41.375 35.0938 39.4062 33.125 37 33.125C34.5391 33.125 32.625 35.0938 32.625 37.5C32.625 39.9609 34.5391 41.875 37 41.875ZM51 37.5C51 45.2656 44.7109 51.5 37 51.5C29.2344 51.5 23 45.2656 23 37.5C23 29.7891 29.2344 23.5 37 23.5C44.7109 23.5 51 29.7891 51 37.5ZM37 27C31.1484 27 26.5 31.7031 26.5 37.5C26.5 43.2969 31.1484 48 37 48C42.7969 48 47.5 43.2969 47.5 37.5C47.5 31.7031 42.7969 27 37 27Z" fill="#9FC0D0"/>
</svg>
