<svg width="26" height="22" viewBox="0 0 26 22" fill="none" xmlns="http://www.w3.org/2000/svg">
<path d="M24.7188 18.5469L14.7344 1.48438C13.9375 0.171875 12.0156 0.171875 11.2656 1.48438L1.23438 18.5469C0.484375 19.8594 1.42188 21.5 2.96875 21.5H22.9844C24.5312 21.5 25.4688 19.8594 24.7188 18.5469ZM11.875 6.875C11.875 6.26562 12.3438 5.75 13 5.75C13.6094 5.75 14.125 6.26562 14.125 6.875V12.875C14.125 13.5312 13.6094 14 13 14C12.4375 14 11.875 13.5312 11.875 12.875V6.875ZM13 18.5C12.1562 18.5 11.5 17.8438 11.5 17.0469C11.5 16.25 12.1562 15.5938 13 15.5938C13.7969 15.5938 14.4531 16.25 14.4531 17.0469C14.4531 17.8438 13.7969 18.5 13 18.5Z" fill="#FF6B00"/>
</svg>
