<svg width="13" height="15" viewBox="0 0 13 15" fill="none" xmlns="http://www.w3.org/2000/svg">
<path opacity="0.5" d="M3 1.625C3 1.16016 3.38281 0.75 3.875 0.75C4.33984 0.75 4.75 1.16016 4.75 1.625V2.5H8.25V1.625C8.25 1.16016 8.63281 0.75 9.125 0.75C9.58984 0.75 10 1.16016 10 1.625V2.5H11.3125C12.0234 2.5 12.625 3.10156 12.625 3.8125V5.125H0.375V3.8125C0.375 3.10156 0.949219 2.5 1.6875 2.5H3V1.625ZM12.625 13.4375C12.625 14.1758 12.0234 14.75 11.3125 14.75H1.6875C0.949219 14.75 0.375 14.1758 0.375 13.4375V6H12.625V13.4375Z" fill="#0D121F"/>
</svg>
