<svg width="15" height="15" viewBox="0 0 15 15" fill="none" xmlns="http://www.w3.org/2000/svg">
<path d="M11.0547 1.37891C11.7383 0.695312 12.8594 0.695312 13.543 1.37891L13.8711 1.70703C14.5547 2.39062 14.5547 3.51172 13.8711 4.19531L7.85547 10.2109C7.60938 10.457 7.30859 10.5938 7.00781 10.6758L4.51953 11.25C4.38281 11.2773 4.21875 11.25 4.10938 11.1406C4 11.0312 3.97266 10.8672 4 10.7305L4.57422 8.24219C4.65625 7.94141 4.79297 7.64062 5.03906 7.39453L11.0547 1.37891ZM12.9141 2.00781C12.5859 1.65234 12.0117 1.65234 11.6836 2.00781L10.9453 2.71875L12.5312 4.30469L13.2422 3.56641C13.5977 3.23828 13.5977 2.66406 13.2422 2.33594L12.9141 2.00781ZM5.42188 8.43359L5.01172 10.2383L6.78906 9.82812C6.95312 9.80078 7.11719 9.71875 7.22656 9.58203L11.9023 4.90625L10.3438 3.34766L5.66797 8.02344C5.53125 8.13281 5.44922 8.29688 5.42188 8.43359ZM6.1875 2.5C6.40625 2.5 6.625 2.71875 6.625 2.9375C6.625 3.18359 6.40625 3.375 6.1875 3.375H2.6875C1.94922 3.375 1.375 3.97656 1.375 4.6875V12.5625C1.375 13.3008 1.94922 13.875 2.6875 13.875H10.5625C11.2734 13.875 11.875 13.3008 11.875 12.5625V9.0625C11.875 8.84375 12.0664 8.625 12.3125 8.625C12.5312 8.625 12.75 8.84375 12.75 9.0625V12.5625C12.75 13.793 11.7656 14.75 10.5625 14.75H2.6875C1.45703 14.75 0.5 13.793 0.5 12.5625V4.6875C0.5 3.48438 1.45703 2.5 2.6875 2.5H6.1875Z" fill="#09090E"/>
</svg>
