<svg width="389" height="365" viewBox="0 0 389 365" fill="none" xmlns="http://www.w3.org/2000/svg">
<g filter="url(#filter0_dddddd_85_3744)">
<path d="M146.713 6.32352e-07L242.62 0L290.573 83.0574L242.62 166.115H146.713L98.7603 83.0574L146.713 6.32352e-07Z" fill="#FEFEFE"/>
<path d="M99.3376 83.0574L147.002 0.500001L242.331 0.5L289.996 83.0574L242.331 165.615H147.002L99.3376 83.0574Z" stroke="url(#paint0_radial_85_3744)"/>
</g>
<path d="M157.728 102.352V65.9882H165.327L178.751 89.0706H179.035V65.9882H186.705V102.352H179.248L165.682 79.2694H165.398V102.352H157.728ZM191.819 91.9825V87.5791H207.657V91.9825H191.819ZM199.702 84.7382C197.903 84.7382 196.335 84.3298 194.997 83.513C193.671 82.6963 192.641 81.6013 191.907 80.2282C191.185 78.8551 190.824 77.3281 190.824 75.6473V74.6529C190.824 72.9957 191.185 71.4806 191.907 70.1075C192.641 68.7225 193.671 67.6217 194.997 66.8049C196.335 65.9763 197.903 65.562 199.702 65.562C201.525 65.562 203.099 65.9763 204.425 66.8049C205.751 67.6217 206.775 68.7225 207.497 70.1075C208.219 71.4806 208.58 72.9957 208.58 74.6529V75.6473C208.58 77.3045 208.225 78.8255 207.515 80.2105C206.804 81.5836 205.786 82.6844 204.461 83.513C203.135 84.3298 201.549 84.7382 199.702 84.7382ZM199.702 79.7666C200.661 79.7666 201.43 79.3937 202.01 78.648C202.602 77.9022 202.898 76.902 202.898 75.6473V74.6529C202.898 73.3864 202.608 72.398 202.028 71.6877C201.46 70.9657 200.685 70.6046 199.702 70.6046C198.732 70.6046 197.968 70.9657 197.412 71.6877C196.855 72.398 196.577 73.3864 196.577 74.6529V75.6473C196.577 76.902 196.855 77.9022 197.412 78.648C197.98 79.3937 198.743 79.7666 199.702 79.7666ZM231.143 65.9882V102.352H221.271V75.0791H221.058L213.103 79.8376V71.4569L222.052 65.9882H231.143Z" fill="url(#paint1_radial_85_3744)"/>
<defs>
<filter id="filter0_dddddd_85_3744" x="0.760254" y="0" width="387.813" height="364.115" filterUnits="userSpaceOnUse" color-interpolation-filters="sRGB">
<feFlood flood-opacity="0" result="BackgroundImageFix"/>
<feColorMatrix in="SourceAlpha" type="matrix" values="0 0 0 0 0 0 0 0 0 0 0 0 0 0 0 0 0 0 127 0" result="hardAlpha"/>
<feOffset dy="2.76726"/>
<feGaussianBlur stdDeviation="1.35596"/>
<feColorMatrix type="matrix" values="0 0 0 0 0.105882 0 0 0 0 0.560784 0 0 0 0 0.780392 0 0 0 0.0559306 0"/>
<feBlend mode="normal" in2="BackgroundImageFix" result="effect1_dropShadow_85_3744"/>
<feColorMatrix in="SourceAlpha" type="matrix" values="0 0 0 0 0 0 0 0 0 0 0 0 0 0 0 0 0 0 127 0" result="hardAlpha"/>
<feOffset dy="6.6501"/>
<feGaussianBlur stdDeviation="3.25855"/>
<feColorMatrix type="matrix" values="0 0 0 0 0.105882 0 0 0 0 0.560784 0 0 0 0 0.780392 0 0 0 0.0672788 0"/>
<feBlend mode="normal" in2="effect1_dropShadow_85_3744" result="effect2_dropShadow_85_3744"/>
<feColorMatrix in="SourceAlpha" type="matrix" values="0 0 0 0 0 0 0 0 0 0 0 0 0 0 0 0 0 0 127 0" result="hardAlpha"/>
<feOffset dy="12.5216"/>
<feGaussianBlur stdDeviation="6.13556"/>
<feColorMatrix type="matrix" values="0 0 0 0 0.105882 0 0 0 0 0.560784 0 0 0 0 0.780392 0 0 0 0.0713751 0"/>
<feBlend mode="normal" in2="effect2_dropShadow_85_3744" result="effect3_dropShadow_85_3744"/>
<feColorMatrix in="SourceAlpha" type="matrix" values="0 0 0 0 0 0 0 0 0 0 0 0 0 0 0 0 0 0 127 0" result="hardAlpha"/>
<feOffset dy="22.3363"/>
<feGaussianBlur stdDeviation="10.9448"/>
<feColorMatrix type="matrix" values="0 0 0 0 0.105882 0 0 0 0 0.560784 0 0 0 0 0.780392 0 0 0 0.076624 0"/>
<feBlend mode="normal" in2="effect3_dropShadow_85_3744" result="effect4_dropShadow_85_3744"/>
<feColorMatrix in="SourceAlpha" type="matrix" values="0 0 0 0 0 0 0 0 0 0 0 0 0 0 0 0 0 0 127 0" result="hardAlpha"/>
<feOffset dy="41.7776"/>
<feGaussianBlur stdDeviation="20.471"/>
<feColorMatrix type="matrix" values="0 0 0 0 0.105882 0 0 0 0 0.560784 0 0 0 0 0.780392 0 0 0 0.0916913 0"/>
<feBlend mode="normal" in2="effect4_dropShadow_85_3744" result="effect5_dropShadow_85_3744"/>
<feColorMatrix in="SourceAlpha" type="matrix" values="0 0 0 0 0 0 0 0 0 0 0 0 0 0 0 0 0 0 127 0" result="hardAlpha"/>
<feOffset dy="100"/>
<feGaussianBlur stdDeviation="49"/>
<feColorMatrix type="matrix" values="0 0 0 0 0.105882 0 0 0 0 0.560784 0 0 0 0 0.780392 0 0 0 0.15 0"/>
<feBlend mode="normal" in2="effect5_dropShadow_85_3744" result="effect6_dropShadow_85_3744"/>
<feBlend mode="normal" in="SourceGraphic" in2="effect6_dropShadow_85_3744" result="shape"/>
</filter>
<radialGradient id="paint0_radial_85_3744" cx="0" cy="0" r="1" gradientUnits="userSpaceOnUse" gradientTransform="translate(100.641 -0.000535881) rotate(36.0306) scale(239.179 7286.33)">
<stop stop-color="#9E68F8"/>
<stop offset="1" stop-color="#537BEE"/>
</radialGradient>
<radialGradient id="paint1_radial_85_3744" cx="0" cy="0" r="1" gradientUnits="userSpaceOnUse" gradientTransform="translate(156.083 53.3516) rotate(32.3135) scale(96.648 2796.2)">
<stop stop-color="#9E68F8"/>
<stop offset="1" stop-color="#537BEE"/>
</radialGradient>
</defs>
</svg>
