<svg width="74" height="74" viewBox="0 0 74 74" fill="none" xmlns="http://www.w3.org/2000/svg">
<rect width="74" height="74" rx="37" fill="#F3F5F5"/>
<path d="M23.9844 42.75L29.9453 40.1797C30.6562 39.9062 31.4766 40.0703 31.9141 40.6719L34.3203 43.625C38.1484 41.7656 41.2109 38.7031 43.0703 34.875L40.1172 32.4688C39.5156 32.0312 39.3516 31.2109 39.625 30.5L42.1953 24.5391C42.5234 23.8281 43.3438 23.3906 44.1094 23.5547L49.6328 24.8672C50.4531 25.0312 50.9453 25.6875 50.9453 26.5078C50.9453 40.2891 39.7344 51.5547 25.9531 51.5547C25.1328 51.5547 24.4766 51.0078 24.3125 50.1875L23 44.7188C22.8359 43.8984 23.2734 43.0781 23.9844 42.75Z" fill="#9FC0D0"/>
</svg>
