<svg width="22" height="22" viewBox="0 0 22 22" fill="none" xmlns="http://www.w3.org/2000/svg">
<path d="M11 7.25C8.89062 7.25 7.25 8.92969 7.25 10.9609C7.25 12.9922 8.89062 14.75 11 14.75C13.0703 14.75 14.7109 13.0703 14.7109 11C14.7109 8.96875 13.0703 7.25 11 7.25ZM20.8828 14.5547L18.4219 11L20.8828 7.44531C21.1172 7.05469 20.9219 6.58594 20.4922 6.50781L16.2344 5.72656L15.4531 1.46875C15.375 1.03906 14.9062 0.84375 14.5547 1.07812L11 3.57812L7.40625 1.11719C7.01562 0.882812 6.54688 1.07812 6.46875 1.50781L5.72656 5.76562L1.46875 6.54688C1.03906 6.625 0.84375 7.09375 1.07812 7.44531L3.53906 11L1.07812 14.5938C0.84375 14.9453 1.03906 15.4141 1.46875 15.4922L5.72656 16.2734L6.50781 20.5312C6.58594 20.9609 7.05469 21.1562 7.40625 20.9219L11 18.4609L14.5547 20.9219C14.9062 21.1562 15.375 20.9609 15.4531 20.5312L16.2344 16.2734L20.4922 15.4922C20.9219 15.4141 21.1172 14.9453 20.8828 14.5547ZM11 16C8.22656 16 6 13.7344 6 11C6 8.26562 8.26562 6.03906 11 6.03906C13.6953 6.03906 15.9609 8.30469 15.9609 11C15.9609 13.7734 13.7344 16 11 16Z" fill="#7972F3"/>
</svg>
