<svg width="21" height="24" viewBox="0 0 21 24" fill="none" xmlns="http://www.w3.org/2000/svg">
<path opacity="0.2" d="M20.4878 7.84391C19.2585 2.43512 14.5405 0 10.3961 0C10.3961 0 10.3961 0 10.3843 0C6.25168 0 1.52193 2.42341 0.292657 7.83219C-1.0771 13.8732 2.62241 18.9892 5.9707 22.2088C7.21169 23.4029 8.80385 24 10.3961 24C11.9883 24 13.5804 23.4029 14.8097 22.2088C18.158 18.9892 21.8575 13.8849 20.4878 7.84391ZM10.3961 13.7093C8.35899 13.7093 6.70826 12.0585 6.70826 10.0215C6.70826 7.9844 8.35899 6.33367 10.3961 6.33367C12.4331 6.33367 14.0839 7.9844 14.0839 10.0215C14.0839 12.0585 12.4331 13.7093 10.3961 13.7093Z" fill="#323A46"/>
</svg>
