<svg width="154" height="39" viewBox="0 0 154 39" fill="none" xmlns="http://www.w3.org/2000/svg">
<path d="M1.51293 18.7577C0.69768 17.9445 0.69768 16.6261 1.51293 15.8129L16.7543 0.6099C17.5696 -0.203299 18.8914 -0.203301 19.7066 0.609899C20.5219 1.4231 20.5219 2.74155 19.7066 3.55475L4.46523 18.7577C3.64997 19.5709 2.32819 19.5709 1.51293 18.7577Z" fill="#0B93D5"/>
<path d="M1.51293 18.7577C0.69768 17.9445 0.69768 16.6261 1.51293 15.8129L16.7543 0.6099C17.5696 -0.203299 18.8914 -0.203301 19.7066 0.609899C20.5219 1.4231 20.5219 2.74155 19.7066 3.55475L4.46523 18.7577C3.64997 19.5709 2.32819 19.5709 1.51293 18.7577Z" fill="url(#paint0_radial_274_3372)"/>
<path d="M13.3634 36.3857C12.5481 35.5725 12.5481 34.254 13.3634 33.4408L20.7652 26.0576H26.5742V20.2633L28.6048 18.2378C29.42 17.4246 30.7418 17.4246 31.5571 18.2378C32.3723 19.051 32.3723 20.3695 31.5571 21.1827L16.3157 36.3856C15.5004 37.1988 14.1787 37.1989 13.3634 36.3857Z" fill="#0B93D5"/>
<path d="M13.3634 36.3857C12.5481 35.5725 12.5481 34.254 13.3634 33.4408L20.7652 26.0576H26.5742V20.2633L28.6048 18.2378C29.42 17.4246 30.7418 17.4246 31.5571 18.2378C32.3723 19.051 32.3723 20.3695 31.5571 21.1827L16.3157 36.3856C15.5004 37.1988 14.1787 37.1989 13.3634 36.3857Z" fill="url(#paint1_radial_274_3372)"/>
<path d="M26.5742 16.3369L31.7308 11.1932C32.5461 10.38 32.5461 9.06156 31.7308 8.24836C30.9156 7.43516 29.5938 7.43516 28.7785 8.24836L24.0727 12.9424H26.5742V16.3369Z" fill="#0B93D5"/>
<path d="M26.5742 16.3369L31.7308 11.1932C32.5461 10.38 32.5461 9.06156 31.7308 8.24836C30.9156 7.43516 29.5938 7.43516 28.7785 8.24836L24.0727 12.9424H26.5742V16.3369Z" fill="url(#paint2_radial_274_3372)"/>
<path d="M19.4115 12.9424C19.4518 12.3623 19.2497 11.7687 18.8051 11.3253C17.9899 10.5121 16.6681 10.5121 15.8528 11.3253L14.2316 12.9424H19.4115Z" fill="#0B93D5"/>
<path d="M19.4115 12.9424C19.4518 12.3623 19.2497 11.7687 18.8051 11.3253C17.9899 10.5121 16.6681 10.5121 15.8528 11.3253L14.2316 12.9424H19.4115Z" fill="url(#paint3_radial_274_3372)"/>
<path d="M13.4258 13.7462V19.6359L3.56373 29.4731C2.74848 30.2863 1.42669 30.2863 0.611439 29.4731C-0.203813 28.6599 -0.203813 27.3415 0.61144 26.5283L13.4258 13.7462Z" fill="#0B93D5"/>
<path d="M13.4258 13.7462V19.6359L3.56373 29.4731C2.74848 30.2863 1.42669 30.2863 0.611439 29.4731C-0.203813 28.6599 -0.203813 27.3415 0.61144 26.5283L13.4258 13.7462Z" fill="url(#paint4_radial_274_3372)"/>
<path d="M13.4258 23.5713V26.0576H16.8289L16.4894 26.3962C15.6742 27.2094 14.3524 27.2094 13.5372 26.3962C12.7609 25.6219 12.7238 24.3895 13.4258 23.5713Z" fill="#0B93D5"/>
<path d="M13.4258 23.5713V26.0576H16.8289L16.4894 26.3962C15.6742 27.2094 14.3524 27.2094 13.5372 26.3962C12.7609 25.6219 12.7238 24.3895 13.4258 23.5713Z" fill="url(#paint5_radial_274_3372)"/>
<path d="M21.1949 38.3901C20.3796 37.5769 20.3796 36.2584 21.1949 35.4452L36.4363 20.2423C37.2515 19.4291 38.5733 19.4291 39.3886 20.2423C40.2038 21.0555 40.2038 22.3739 39.3886 23.1871L24.1472 38.3901C23.3319 39.2033 22.0101 39.2033 21.1949 38.3901Z" fill="#0B93D5"/>
<path d="M21.1949 38.3901C20.3796 37.5769 20.3796 36.2584 21.1949 35.4452L36.4363 20.2423C37.2515 19.4291 38.5733 19.4291 39.3886 20.2423C40.2038 21.0555 40.2038 22.3739 39.3886 23.1871L24.1472 38.3901C23.3319 39.2033 22.0101 39.2033 21.1949 38.3901Z" fill="url(#paint6_radial_274_3372)"/>
<path d="M57.6123 16.1196C57.5526 15.5181 57.2966 15.0507 56.8442 14.7177C56.3918 14.3846 55.7778 14.218 55.0022 14.218C54.4752 14.218 54.0303 14.2926 53.6673 14.4417C53.3044 14.5859 53.026 14.7873 52.8321 15.0458C52.6432 15.3043 52.5487 15.5976 52.5487 15.9257C52.5388 16.1992 52.596 16.4378 52.7203 16.6417C52.8495 16.8455 53.026 17.022 53.2497 17.1711C53.4735 17.3153 53.732 17.4421 54.0253 17.5515C54.3186 17.6559 54.6318 17.7454 54.9649 17.8199L56.3371 18.148C57.0033 18.2972 57.6148 18.4961 58.1716 18.7446C58.7284 18.9932 59.2107 19.299 59.6183 19.6619C60.026 20.0248 60.3417 20.4524 60.5654 20.9446C60.7941 21.4368 60.911 22.001 60.9159 22.6374C60.911 23.5721 60.6723 24.3824 60.2 25.0685C59.7327 25.7496 59.0566 26.2791 58.1716 26.6569C57.2916 27.0298 56.2302 27.2162 54.9873 27.2162C53.7544 27.2162 52.6805 27.0273 51.7657 26.6495C50.8559 26.2716 50.145 25.7123 49.6329 24.9716C49.1258 24.2258 48.8598 23.3036 48.835 22.2049H51.9596C51.9944 22.7169 52.1411 23.1445 52.3996 23.4875C52.6631 23.8256 53.0136 24.0816 53.4511 24.2556C53.8936 24.4247 54.3932 24.5092 54.95 24.5092C55.4969 24.5092 55.9717 24.4297 56.3744 24.2706C56.782 24.1115 57.0977 23.8902 57.3215 23.6069C57.5452 23.3235 57.657 22.9978 57.657 22.6299C57.657 22.2869 57.5551 21.9985 57.3513 21.7649C57.1524 21.5312 56.8591 21.3324 56.4713 21.1683C56.0885 21.0042 55.6187 20.8551 55.0619 20.7208L53.3989 20.3032C52.1112 19.99 51.0945 19.5003 50.3488 18.8341C49.6031 18.1679 49.2327 17.2706 49.2377 16.142C49.2327 15.2173 49.4788 14.4094 49.9759 13.7184C50.4781 13.0273 51.1666 12.4879 52.0416 12.1001C52.9166 11.7123 53.911 11.5184 55.0246 11.5184C56.1581 11.5184 57.1475 11.7123 57.9926 12.1001C58.8428 12.4879 59.504 13.0273 59.9763 13.7184C60.4486 14.4094 60.6922 15.2098 60.7071 16.1196H57.6123Z" fill="black"/>
<path d="M65.9068 23.7038L65.9142 19.8931H66.3766L70.0456 15.5454H73.6923L68.763 21.3025H68.0098L65.9068 23.7038ZM63.0282 27V11.7272H66.2051V27H63.0282ZM70.1873 27L66.8166 22.011L68.9345 19.7663L73.9086 27H70.1873Z" fill="black"/>
<path d="M77.3968 31.2954C76.9941 31.2954 76.6162 31.2631 76.2632 31.1985C75.9152 31.1388 75.6269 31.0618 75.3982 30.9673L76.1141 28.5958C76.4869 28.7102 76.8225 28.7723 77.1208 28.7823C77.4241 28.7922 77.6851 28.7226 77.9039 28.5735C78.1276 28.4243 78.309 28.1708 78.4482 27.8128L78.6347 27.3281L74.5257 15.5454H77.8666L80.238 23.9574H80.3573L82.7512 15.5454H86.1144L81.6624 28.2379C81.4486 28.8544 81.1578 29.3913 80.7899 29.8487C80.4269 30.311 79.9671 30.6665 79.4102 30.9151C78.8534 31.1686 78.1823 31.2954 77.3968 31.2954Z" fill="black"/>
<path d="M95.8892 11.7272V27H92.6602V11.7272H95.8892Z" fill="black"/>
<path d="M101.663 20.3778V27H98.4862V15.5454H101.514V17.5664H101.648C101.902 16.9002 102.327 16.3732 102.923 15.9854C103.52 15.5927 104.243 15.3963 105.093 15.3963C105.889 15.3963 106.582 15.5703 107.174 15.9183C107.766 16.2663 108.226 16.7635 108.554 17.4098C108.882 18.0511 109.046 18.8167 109.046 19.7066V27H105.869V20.2734C105.874 19.5724 105.695 19.0255 105.332 18.6328C104.969 18.2351 104.47 18.0362 103.833 18.0362C103.406 18.0362 103.028 18.1282 102.7 18.3121C102.377 18.4961 102.123 18.7645 101.939 19.1175C101.76 19.4655 101.668 19.8856 101.663 20.3778Z" fill="black"/>
<path d="M121.819 15.5454L117.814 27H114.234L110.23 15.5454H113.586L115.964 23.7411H116.084L118.455 15.5454H121.819Z" fill="black"/>
<path d="M128.295 27.2237C127.117 27.2237 126.103 26.9851 125.253 26.5078C124.407 26.0255 123.756 25.3444 123.299 24.4645C122.841 23.5795 122.613 22.533 122.613 21.3249C122.613 20.1466 122.841 19.1125 123.299 18.2226C123.756 17.3327 124.4 16.6392 125.23 16.142C126.066 15.6449 127.045 15.3963 128.169 15.3963C128.924 15.3963 129.628 15.5181 130.279 15.7617C130.935 16.0003 131.507 16.3608 131.994 16.843C132.486 17.3253 132.869 17.9318 133.143 18.6626C133.416 19.3885 133.553 20.2386 133.553 21.213V22.0855H123.881V20.1168H130.562C130.562 19.6594 130.463 19.2542 130.264 18.9012C130.065 18.5483 129.789 18.2723 129.436 18.0735C129.088 17.8696 128.683 17.7677 128.221 17.7677C127.738 17.7677 127.311 17.8796 126.938 18.1033C126.57 18.3221 126.282 18.6179 126.073 18.9907C125.864 19.3586 125.757 19.7688 125.752 20.2212V22.093C125.752 22.6598 125.857 23.1495 126.066 23.5621C126.279 23.9748 126.58 24.2929 126.968 24.5167C127.356 24.7404 127.816 24.8522 128.347 24.8522C128.7 24.8522 129.024 24.8025 129.317 24.7031C129.61 24.6037 129.861 24.4545 130.07 24.2556C130.279 24.0568 130.438 23.8132 130.547 23.5248L133.486 23.7187C133.336 24.4247 133.031 25.0412 132.568 25.5681C132.111 26.0902 131.519 26.4978 130.794 26.7912C130.073 27.0795 129.24 27.2237 128.295 27.2237Z" fill="black"/>
<path d="M145.156 18.8118L142.248 18.9907C142.198 18.7422 142.091 18.5184 141.927 18.3196C141.763 18.1157 141.547 17.9542 141.279 17.8348C141.015 17.7105 140.699 17.6484 140.331 17.6484C139.839 17.6484 139.424 17.7528 139.086 17.9616C138.748 18.1654 138.579 18.4389 138.579 18.7819C138.579 19.0554 138.688 19.2865 138.907 19.4755C139.126 19.6644 139.501 19.816 140.033 19.9304L142.106 20.348C143.22 20.5767 144.05 20.9446 144.597 21.4517C145.144 21.9588 145.417 22.625 145.417 23.4503C145.417 24.201 145.196 24.8597 144.754 25.4265C144.316 25.9932 143.715 26.4357 142.949 26.7539C142.188 27.0671 141.311 27.2237 140.317 27.2237C138.8 27.2237 137.592 26.908 136.692 26.2766C135.797 25.6402 135.273 24.7752 135.119 23.6814L138.243 23.5174C138.338 23.9797 138.567 24.3327 138.93 24.5763C139.292 24.815 139.757 24.9343 140.324 24.9343C140.881 24.9343 141.328 24.8274 141.666 24.6136C142.009 24.3949 142.183 24.114 142.188 23.7709C142.183 23.4826 142.062 23.2464 141.823 23.0625C141.584 22.8735 141.216 22.7294 140.719 22.6299L138.736 22.2347C137.617 22.011 136.784 21.6232 136.237 21.0713C135.695 20.5195 135.425 19.816 135.425 18.9609C135.425 18.2251 135.623 17.5912 136.021 17.0593C136.424 16.5273 136.988 16.1172 137.714 15.8288C138.445 15.5405 139.3 15.3963 140.279 15.3963C141.726 15.3963 142.865 15.702 143.695 16.3135C144.53 16.925 145.017 17.7578 145.156 18.8118Z" fill="black"/>
<path d="M153.511 15.5454V17.9318H146.612V15.5454H153.511ZM148.179 12.8011H151.355V23.4801C151.355 23.7734 151.4 24.0021 151.49 24.1662C151.579 24.3253 151.703 24.4371 151.862 24.5017C152.027 24.5664 152.215 24.5987 152.429 24.5987C152.578 24.5987 152.728 24.5863 152.877 24.5614C153.026 24.5316 153.14 24.5092 153.22 24.4943L153.719 26.8583C153.56 26.908 153.337 26.9652 153.048 27.0298C152.76 27.0994 152.409 27.1417 151.997 27.1566C151.231 27.1864 150.56 27.0845 149.983 26.8508C149.411 26.6172 148.967 26.2542 148.648 25.762C148.33 25.2699 148.174 24.6484 148.179 23.8977V12.8011Z" fill="black"/>
<defs>
<radialGradient id="paint0_radial_274_3372" cx="0" cy="0" r="1" gradientUnits="userSpaceOnUse" gradientTransform="translate(0.39216 -0.000125813) rotate(39.3135) scale(52.1347 1636.6)">
<stop stop-color="#9E68F8"/>
<stop offset="1" stop-color="#537BEE"/>
</radialGradient>
<radialGradient id="paint1_radial_274_3372" cx="0" cy="0" r="1" gradientUnits="userSpaceOnUse" gradientTransform="translate(0.39216 -0.000125813) rotate(39.3135) scale(52.1347 1636.6)">
<stop stop-color="#9E68F8"/>
<stop offset="1" stop-color="#537BEE"/>
</radialGradient>
<radialGradient id="paint2_radial_274_3372" cx="0" cy="0" r="1" gradientUnits="userSpaceOnUse" gradientTransform="translate(0.39216 -0.000125813) rotate(39.3135) scale(52.1347 1636.6)">
<stop stop-color="#9E68F8"/>
<stop offset="1" stop-color="#537BEE"/>
</radialGradient>
<radialGradient id="paint3_radial_274_3372" cx="0" cy="0" r="1" gradientUnits="userSpaceOnUse" gradientTransform="translate(0.39216 -0.000125813) rotate(39.3135) scale(52.1347 1636.6)">
<stop stop-color="#9E68F8"/>
<stop offset="1" stop-color="#537BEE"/>
</radialGradient>
<radialGradient id="paint4_radial_274_3372" cx="0" cy="0" r="1" gradientUnits="userSpaceOnUse" gradientTransform="translate(0.39216 -0.000125813) rotate(39.3135) scale(52.1347 1636.6)">
<stop stop-color="#9E68F8"/>
<stop offset="1" stop-color="#537BEE"/>
</radialGradient>
<radialGradient id="paint5_radial_274_3372" cx="0" cy="0" r="1" gradientUnits="userSpaceOnUse" gradientTransform="translate(0.39216 -0.000125813) rotate(39.3135) scale(52.1347 1636.6)">
<stop stop-color="#9E68F8"/>
<stop offset="1" stop-color="#537BEE"/>
</radialGradient>
<radialGradient id="paint6_radial_274_3372" cx="0" cy="0" r="1" gradientUnits="userSpaceOnUse" gradientTransform="translate(0.39216 -0.000125813) rotate(39.3135) scale(52.1347 1636.6)">
<stop stop-color="#9E68F8"/>
<stop offset="1" stop-color="#537BEE"/>
</radialGradient>
</defs>
</svg>
