<svg width="17" height="15" viewBox="0 0 17 15" fill="none" xmlns="http://www.w3.org/2000/svg">
<path d="M3 14.5H5C5.53125 14.5 6 14.0625 6 13.5C6 12.9688 5.53125 12.5 5 12.5H3C2.4375 12.5 2 12.0625 2 11.5V3.5C2 2.96875 2.4375 2.5 3 2.5H5C5.53125 2.5 6 2.0625 6 1.5C6 0.96875 5.53125 0.5 5 0.5H3C1.3125 0.5 0 1.84375 0 3.5V11.5C0 13.1562 1.3125 14.5 3 14.5ZM15.75 6.96875L11.25 2.71875C11.0312 2.5 10.7188 2.46875 10.4375 2.5625C10.1562 2.6875 10 2.96875 10 3.25V5.5H6C5.4375 5.5 5 5.96875 5 6.5V8.5C5 9.0625 5.4375 9.5 6 9.5H10V11.75C10 12.0312 10.1562 12.3125 10.4375 12.4375C10.7188 12.5312 11.0312 12.5 11.25 12.2812L15.75 8.03125C16.0625 7.78125 16.0625 7.25 15.75 6.96875Z" fill="url(#paint0_radial_274_3424)"/>
<defs>
<radialGradient id="paint0_radial_274_3424" cx="0" cy="0" r="1" gradientUnits="userSpaceOnUse" gradientTransform="translate(1.13726 -0.500052) rotate(43.8268) scale(19.5688 626.08)">
<stop stop-color="#9E68F8"/>
<stop offset="1" stop-color="#537BEE"/>
</radialGradient>
</defs>
</svg>
