<svg width="14" height="13" viewBox="0 0 14 13" fill="none" xmlns="http://www.w3.org/2000/svg">
<path d="M4.8125 11.5H2.1875C1.44922 11.5 0.875 10.9258 0.875 10.1875V2.3125C0.875 1.60156 1.44922 1 2.1875 1H4.8125C5.03125 1 5.25 0.808594 5.25 0.5625C5.25 0.34375 5.03125 0.125 4.8125 0.125H2.1875C0.957031 0.125 0 1.10938 0 2.3125V10.1875C0 11.418 0.957031 12.375 2.1875 12.375H4.8125C5.03125 12.375 5.25 12.1836 5.25 11.9375C5.25 11.7188 5.03125 11.5 4.8125 11.5ZM13.7266 5.64844L10.2266 2.14844C9.98047 1.90234 9.59766 1.82031 9.26953 1.95703C8.94141 2.09375 8.75 2.42188 8.75 2.75V4.5H4.8125C4.07422 4.5 3.5 5.10156 3.5 5.8125V6.6875C3.5 7.42578 4.07422 8 4.8125 8H8.75V9.75C8.75 10.1055 8.94141 10.4336 9.26953 10.5703C9.59766 10.707 9.98047 10.625 10.2266 10.3789L13.7266 6.87891C13.8906 6.71484 14 6.49609 14 6.25C14 6.03125 13.8906 5.8125 13.7266 5.64844ZM9.625 9.75V7.125H4.8125C4.56641 7.125 4.375 6.93359 4.375 6.6875V5.8125C4.375 5.59375 4.56641 5.375 4.8125 5.375H9.625L9.59766 2.75L13.0977 6.25L9.625 9.75Z" fill="#09090E"/>
</svg>
