<svg width="24" height="19" viewBox="0 0 24 19" fill="none" xmlns="http://www.w3.org/2000/svg">
<path d="M21 0.25H3C1.3125 0.25 0 1.60938 0 3.25V15.25C0 16.9375 1.3125 18.25 3 18.25H21C22.6406 18.25 24 16.9375 24 15.25V3.25C24 1.60938 22.6406 0.25 21 0.25ZM23.25 15.25C23.25 16.5156 22.2188 17.5 21 17.5H3C1.73438 17.5 0.75 16.5156 0.75 15.25V5.5L10.4062 13.2344C10.875 13.5625 11.3906 13.75 12 13.75C12.5625 13.75 13.125 13.5625 13.5469 13.2344L23.25 5.5V15.25ZM23.25 4.51562L13.0781 12.625C12.4688 13.1406 11.4844 13.1406 10.875 12.625L0.75 4.51562V3.25C0.75 2.03125 1.73438 1 3 1H21C22.2188 1 23.25 2.03125 23.25 3.25V4.51562Z" fill="#0D121F"/>
</svg>
