<svg width="14" height="15" viewBox="0 0 14 15" fill="none" xmlns="http://www.w3.org/2000/svg">
<path d="M9.40625 4.1875C9.40625 3.83203 9.67969 3.53125 10.0625 3.53125C10.418 3.53125 10.7188 3.83203 10.7188 4.1875C10.7188 4.57031 10.418 4.84375 10.0625 4.84375C9.67969 4.84375 9.40625 4.57031 9.40625 4.1875ZM9.1875 9.875C8.91406 9.875 8.66797 9.875 8.42188 9.82031L7.65625 10.5586C7.54688 10.6953 7.38281 10.75 7.21875 10.75H6.125V11.8438C6.125 12.2266 5.82422 12.5 5.46875 12.5H4.375V13.5938C4.375 13.9766 4.07422 14.25 3.71875 14.25H0.65625C0.273438 14.25 0 13.9766 0 13.5938V10.9688C0 10.8047 0.0546875 10.6406 0.191406 10.5039L4.48438 6.21094C4.40234 5.82812 4.375 5.47266 4.375 5.0625C4.375 2.41016 6.50781 0.25 9.1875 0.25C11.8398 0.25 14 2.41016 14 5.0625C14 7.74219 11.8398 9.875 9.1875 9.875ZM9.1875 9C11.3477 9 13.125 7.25 13.125 5.0625C13.125 2.90234 11.3477 1.125 9.1875 1.125C7 1.125 5.25 2.90234 5.25 5.0625C5.25 5.39062 5.27734 5.69141 5.33203 5.99219L5.46875 6.48438L0.875 11.0781V13.375H3.5V11.625H5.25V9.875H7.10938L8.12109 8.89062L8.55859 8.97266C8.75 9 8.96875 9 9.1875 9Z" fill="#09090E"/>
</svg>
