<svg width="22" height="24" viewBox="0 0 22 24" fill="none" xmlns="http://www.w3.org/2000/svg">
<path opacity="0.2" d="M18.0113 0H3.60225C1.60901 0 0 1.597 0 3.56623V16.6664C0 18.6357 1.60901 20.2326 3.60225 20.2326H4.51484C5.47543 20.2326 6.38801 20.6049 7.06042 21.2773L9.1137 23.3066C10.0503 24.2311 11.5753 24.2311 12.5118 23.3066L14.5651 21.2773C15.2375 20.6049 16.1621 20.2326 17.1107 20.2326H18.0113C20.0045 20.2326 21.6135 18.6357 21.6135 16.6664V3.56623C21.6135 1.597 20.0045 0 18.0113 0ZM10.8068 4.50281C12.3557 4.50281 13.6045 5.75158 13.6045 7.30055C13.6045 8.84952 12.3557 10.0983 10.8068 10.0983C9.25779 10.0983 8.00903 8.83754 8.00903 7.30055C8.00903 5.75158 9.25779 4.50281 10.8068 4.50281ZM14.0248 15.6818H7.58873C6.61612 15.6818 6.05179 14.6011 6.59212 13.7966C7.40862 12.5839 8.99361 11.7673 10.8068 11.7673C12.6199 11.7673 14.2049 12.5839 15.0214 13.7966C15.5617 14.6011 14.9854 15.6818 14.0248 15.6818Z" fill="#323A46"/>
</svg>
