<svg width="25" height="25" viewBox="0 0 25 25" fill="none" xmlns="http://www.w3.org/2000/svg">
<path d="M23.8281 1.92188L19.1406 0.796875C18.4375 0.65625 17.7344 1.03125 17.4531 1.64062L15.25 6.75C15.0156 7.35938 15.1562 8.0625 15.6719 8.4375L18.2031 10.5C16.6094 13.7812 13.9844 16.4062 10.7031 18L8.64062 15.4688C8.26562 14.9531 7.5625 14.8125 6.95312 15.0469L1.84375 17.25C1.23438 17.5312 0.859375 18.2344 1 18.9375L2.125 23.625C2.26562 24.3281 2.82812 24.7969 3.53125 24.7969C15.3438 24.7969 25 15.1406 25 3.32812C25 2.625 24.5312 2.0625 23.8281 1.92188ZM3.53125 24C3.20312 24 2.92188 23.8125 2.82812 23.4844L1.75 18.75C1.65625 18.4219 1.84375 18.0469 2.17188 17.9062L7.23438 15.75C7.5625 15.6094 7.89062 15.7031 8.07812 15.9375L10.5156 18.9375C16.7969 15.9844 18.8125 11.0156 19.1406 10.3125L16.1406 7.875C15.9062 7.6875 15.8125 7.3125 15.9531 7.03125L18.1094 1.96875C18.25 1.64062 18.625 1.45312 18.9531 1.54688L23.6875 2.625C24.0156 2.71875 24.25 3 24.25 3.32812C24.25 14.7188 14.9219 24 3.53125 24Z" fill="#0D121F"/>
</svg>
