<svg width="74" height="74" viewBox="0 0 74 74" fill="none" xmlns="http://www.w3.org/2000/svg">
<rect width="74" height="74" rx="37" fill="#F3F5F5"/>
<path d="M41.8359 31.7578L49.6562 32.9062C50.3125 33.0156 50.8594 33.4531 51.0781 34.1094C51.2969 34.7109 51.1328 35.4219 50.6406 35.8594L44.9531 41.4922L46.3203 49.4766C46.4297 50.1328 46.1562 50.7891 45.6094 51.1719C45.0625 51.6094 44.3516 51.6094 43.75 51.3359L36.75 47.5625L29.6953 51.3359C29.1484 51.6094 28.3828 51.6094 27.8906 51.1719C27.3438 50.7891 27.0703 50.1328 27.1797 49.4766L28.4922 41.4922L22.8047 35.8594C22.3125 35.4219 22.1484 34.7109 22.3672 34.1094C22.5859 33.4531 23.1328 33.0156 23.7891 32.9062L31.6641 31.7578L35.1641 24.4844C35.4375 23.8828 36.0391 23.5 36.75 23.5C37.4062 23.5 38.0078 23.8828 38.2812 24.4844L41.8359 31.7578Z" fill="#9FC0D0"/>
</svg>
