<svg width="14" height="15" viewBox="0 0 14 15" fill="none" xmlns="http://www.w3.org/2000/svg">
<path d="M7 0.75C3.11719 0.75 0 3.89453 0 7.75C0 11.6328 3.11719 14.75 7 14.75C10.8555 14.75 14 11.6328 14 7.75C14 3.89453 10.8555 0.75 7 0.75ZM7 13.875C5.6875 13.875 4.48438 13.4922 3.5 12.8086C3.60938 11.4414 4.73047 10.375 6.125 10.375H7.875C9.24219 10.375 10.3633 11.4414 10.4727 12.8086C9.48828 13.4922 8.28516 13.875 7 13.875ZM11.2383 12.1523C10.8555 10.6484 9.48828 9.5 7.875 9.5H6.125C4.48438 9.5 3.11719 10.6484 2.73438 12.1523C1.58594 11.0312 0.875 9.47266 0.875 7.75C0.875 4.38672 3.60938 1.625 7 1.625C10.3633 1.625 13.125 4.38672 13.125 7.75C13.125 9.47266 12.3867 11.0312 11.2383 12.1523ZM7 4.25C5.76953 4.25 4.8125 5.23438 4.8125 6.4375C4.8125 7.66797 5.76953 8.625 7 8.625C8.20312 8.625 9.1875 7.66797 9.1875 6.4375C9.1875 5.23438 8.20312 4.25 7 4.25ZM7 7.75C6.26172 7.75 5.6875 7.17578 5.6875 6.4375C5.6875 5.72656 6.26172 5.125 7 5.125C7.71094 5.125 8.3125 5.72656 8.3125 6.4375C8.3125 7.17578 7.71094 7.75 7 7.75Z" fill="#09090E"/>
</svg>
