<svg width="19" height="19" viewBox="0 0 19 19" fill="none" xmlns="http://www.w3.org/2000/svg">
<path d="M12.7695 6.05859L17.7969 6.79688C18.2188 6.86719 18.5703 7.14844 18.7109 7.57031C18.8516 7.95703 18.7461 8.41406 18.4297 8.69531L14.7734 12.3164L15.6523 17.4492C15.7227 17.8711 15.5469 18.293 15.1953 18.5391C14.8438 18.8203 14.3867 18.8203 14 18.6445L9.5 16.2188L4.96484 18.6445C4.61328 18.8203 4.12109 18.8203 3.80469 18.5391C3.45312 18.293 3.27734 17.8711 3.34766 17.4492L4.19141 12.3164L0.535156 8.69531C0.21875 8.41406 0.113281 7.95703 0.253906 7.57031C0.394531 7.14844 0.746094 6.86719 1.16797 6.79688L6.23047 6.05859L8.48047 1.38281C8.65625 0.996094 9.04297 0.75 9.5 0.75C9.92188 0.75 10.3086 0.996094 10.4844 1.38281L12.7695 6.05859Z" fill="#FF7A00"/>
</svg>
