<svg width="28" height="27" viewBox="0 0 28 27" fill="none" xmlns="http://www.w3.org/2000/svg">
<path d="M13.949 22.3906L6.99199 26.1484C6.58574 26.3516 6.12871 26.3008 5.72246 26.0469C5.36699 25.793 5.16387 25.2852 5.21465 24.8281L6.58574 16.957L0.949023 11.3711C0.593554 11.0156 0.491992 10.5586 0.644336 10.1016C0.796679 9.69531 1.15215 9.33984 1.60918 9.28906L9.37871 8.12109L12.8826 0.960938C13.0857 0.554688 13.492 0.25 13.949 0.25C14.4568 0.25 14.8631 0.554688 15.0662 0.960938L18.5701 8.12109L26.3396 9.28906C26.7967 9.33984 27.1521 9.69531 27.3045 10.1016C27.4568 10.5586 27.3553 11.0156 26.9998 11.3711L21.3631 16.957L22.6834 24.8281C22.785 25.2852 22.5818 25.793 22.2264 26.0469C21.8201 26.3008 21.3123 26.3516 20.9061 26.1484L13.949 22.3906ZM10.1404 8.47656C9.98809 8.73047 9.78496 8.88281 9.53105 8.93359L1.71074 10.1016C1.5584 10.1016 1.45684 10.2031 1.40605 10.3555C1.35527 10.5078 1.40605 10.6602 1.50762 10.7617L7.14434 16.3477C7.34746 16.5508 7.39824 16.8047 7.39824 17.0586L6.02715 24.9805C6.02715 25.1328 6.07793 25.2852 6.17949 25.3867C6.33184 25.4883 6.48418 25.4883 6.63652 25.3867L13.5936 21.6797C13.8475 21.5781 14.1014 21.5781 14.3553 21.6797L21.3123 25.3867C21.4646 25.4883 21.617 25.4883 21.7186 25.3867C21.8709 25.2852 21.9217 25.1328 21.9217 24.9805L20.5506 17.0586C20.4998 16.8047 20.6014 16.5508 20.8045 16.3477L26.4412 10.7617C26.5428 10.6602 26.5936 10.5078 26.5428 10.3555C26.492 10.2031 26.3904 10.1016 26.2381 10.1016L18.4178 8.93359C18.1639 8.88281 17.9607 8.73047 17.8084 8.47656L14.3553 1.31641C14.2537 1.16406 14.1014 1.0625 13.949 1.0625C13.7967 1.0625 13.6951 1.16406 13.5936 1.31641L10.1404 8.47656ZM0.949023 11.3711L1.50762 10.7617L0.949023 11.3711Z" fill="#FF7A00"/>
</svg>
