<svg width="74" height="74" viewBox="0 0 74 74" fill="none" xmlns="http://www.w3.org/2000/svg">
<rect width="74" height="74" rx="37" fill="#F3F5F5"/>
<path d="M52.2812 28.0391C52.1172 27.4375 51.5703 27 50.9688 27H45.4453C45.5 26.3438 45.5 25.7422 45.4453 25.1953C45.4453 24.2656 44.6797 23.5 43.6953 23.5H29.75C28.7656 23.5 28 24.2656 28 25.1953C27.9453 25.7422 27.9453 26.3438 28 27H22.4766C21.875 27 21.3281 27.4375 21.1641 28.0391C21.1641 28.2031 20.125 32.6875 23.0234 36.9531C25.0469 40.0156 28.4922 42.1484 33.25 43.4062C34.2891 43.6797 34.9453 44.6094 34.9453 45.6484C35 46.9609 33.9062 48 32.5938 48H32.375C30.8984 48 29.75 49.2031 29.75 50.625C29.75 51.1172 30.1328 51.5 30.5703 51.5H42.7656C43.2578 51.5 43.5859 51.1172 43.5859 50.625C43.5859 49.2031 42.3828 48 40.9609 48H40.6875C39.375 48 38.3359 46.9609 38.3359 45.6484C38.3359 44.6094 39.0469 43.6797 40.0312 43.4062C44.7891 42.1484 48.2344 40.0156 50.3125 36.9531C53.3203 32.6875 52.2812 28.2031 52.2812 28.0391ZM25.2109 35.5312C23.6797 33.2891 23.5703 30.9375 23.625 29.625H28C28.3281 32.9062 29.1484 36.8438 31.1719 40.0156C28.4922 38.9219 26.4688 37.4453 25.2109 35.5312ZM48.2344 35.5312C46.9766 37.4453 44.9531 38.9219 42.2734 40.0156C44.2969 36.8438 45.1172 32.9062 45.4453 29.625H49.8203C49.875 30.9375 49.7656 33.2891 48.2344 35.5312Z" fill="#9FC0D0"/>
</svg>
