<svg width="22" height="19" viewBox="0 0 22 19" fill="none" xmlns="http://www.w3.org/2000/svg">
<path d="M10.7321 18.988L0.0167236 8.27265L3.92294 0H17.5532L21.4594 8.27265L10.744 18.988V19L10.7381 18.994L10.7321 19V18.988Z" fill="#26A17B"/>
<path d="M12.0868 9.28397C12.0153 9.28397 11.6044 9.31971 10.7291 9.31971C10.0145 9.31971 9.53215 9.30184 9.35352 9.28397C6.656 9.17678 4.61945 8.69444 4.61945 8.14064C4.61945 7.56899 6.63813 7.10451 9.35352 6.97947V8.8195C9.53215 8.83735 10.0324 8.85522 10.7469 8.85522C11.5866 8.85522 12.0153 8.8195 12.0868 8.8195V6.97947C14.8021 7.10451 16.8208 7.56899 16.8208 8.14064C16.8208 8.69444 14.8021 9.17678 12.0868 9.28397ZM12.0868 6.78295V5.13943H15.874V2.62054H5.58412V5.13943H9.37137V6.78295C6.2987 6.92587 3.9942 7.53327 3.9942 8.2657C3.9942 8.99813 6.2987 9.60552 9.37137 9.74845V15.0363H12.1046V9.74845C15.1773 9.60552 17.4818 8.99813 17.4818 8.2657C17.4639 7.53327 15.1595 6.92587 12.0868 6.78295Z" fill="white"/>
</svg>
