<svg width="14" height="17" viewBox="0 0 14 17" fill="none" xmlns="http://www.w3.org/2000/svg">
<path d="M7 8.5C9.1875 8.5 11 6.71875 11 4.5C11 2.3125 9.1875 0.5 7 0.5C4.78125 0.5 3 2.3125 3 4.5C3 6.71875 4.78125 8.5 7 8.5ZM7 1C8.90625 1 10.5 2.59375 10.5 4.5C10.5 6.4375 8.90625 8 7 8C5.0625 8 3.5 6.4375 3.5 4.5C3.5 2.59375 5.0625 1 7 1ZM8.5625 10H5.40625C2.40625 10 0 12.4375 0 15.4375C0 16.0312 0.46875 16.5 1.0625 16.5H12.9062C13.5 16.5 14 16.0312 14 15.4375C14 12.4375 11.5625 10 8.5625 10ZM12.9062 16H1.0625C0.75 16 0.5 15.75 0.5 15.4375C0.5 12.7188 2.6875 10.5 5.40625 10.5H8.5625C11.2812 10.5 13.5 12.7188 13.5 15.4375C13.5 15.75 13.2188 16 12.9062 16Z" fill="black"/>
</svg>
