<svg width="45" height="39" viewBox="0 0 45 39" fill="none" xmlns="http://www.w3.org/2000/svg">
<rect width="44.4834" height="38.0188" fill="white"/>
<path d="M15.0962 17.0207C15.8656 16.8463 16.594 16.8258 17.3737 16.8258C19.487 16.8052 21.59 17.7696 23.1597 19.1545C27.0477 22.5605 26.145 23.2068 26.0321 24.7148C26.0526 24.7558 26.0629 24.8482 26.0629 24.9405C25.5192 26.1818 25.4781 27.8232 25.9911 27.8438C26.1347 31.7524 23.3135 32.5526 23.1597 32.6962C21.7234 33.9786 19.8768 34.8506 17.9482 34.9839C16.7787 35.0865 15.9579 35.066 14.9936 34.8095C12.4905 34.2453 10.2848 32.5628 9.05375 30.3161C7.43285 27.4334 7.56622 23.6376 9.43333 20.8985C10.7157 18.9391 12.7982 17.5131 15.0962 17.0207Z" fill="#FF0004"/>
<path d="M26.8838 24.1196L34.3728 23.6375L34.1573 28.9208H26.8838C25.3552 27.8128 25.1706 25.166 26.8838 24.1196Z" fill="white"/>
<path d="M27.1197 17.0511C27.9302 16.8357 28.6586 16.846 29.4793 16.8254C29.9512 16.8254 30.5975 16.8973 31.0591 16.9896C33.0596 17.3999 34.9165 18.4874 36.2296 20.057C37.5119 21.5753 38.3019 23.5245 38.3634 25.5249C38.4558 27.4228 37.9428 29.331 36.8964 30.9211C35.5217 33.0549 33.2032 34.563 30.6898 34.9426C29.7973 34.9939 29.0279 35.0964 28.0225 34.9631C26.2272 34.7579 24.5037 33.9269 23.1701 32.7061C23.324 32.5625 23.5086 32.3881 23.6625 32.2342H22.7289L22.216 31.67L24.1036 31.6905L24.514 31.157L21.7954 31.116L21.4671 30.6441L24.7807 30.6338L25.1295 30.0593L21.1388 30.0799L20.8926 29.5669C22.3186 29.5361 23.9292 29.5669 25.345 29.5567L25.5912 29.0027H20.708L20.4925 28.4795L25.7758 28.4692L25.9913 27.864C25.4783 27.8537 24.9243 27.8537 24.4114 27.864C24.4422 27.6896 24.4627 27.5254 24.4935 27.351C24.9346 27.351 25.3655 27.351 25.8066 27.351C26.2375 28.2333 27.4378 28.4897 28.2687 28.0589C28.3508 27.8537 28.3816 27.628 28.4431 27.4126L28.4842 27.2176C28.4842 27.6793 28.6586 28.0486 28.9561 28.182C29.428 28.4179 29.9819 28.2846 30.4128 28.0281C30.4333 28.0896 30.4744 28.2128 30.4949 28.2743C30.7514 28.2743 30.9976 28.264 31.254 28.264C31.3977 27.4844 31.5618 26.7047 31.6952 25.9353C31.808 25.4839 31.4387 25.0838 31.0283 24.971C30.4744 24.8273 29.8588 24.8376 29.3151 25.0223C29.151 25.2479 29.1202 25.5352 29.0279 25.7917C29.4998 25.7096 29.9819 25.607 30.4641 25.6891C30.659 25.7096 30.6795 25.925 30.7001 26.0892C30.1358 26.1405 29.6229 26.0687 29.1099 26.3559C28.7919 26.52 28.6175 26.7047 28.5047 27.1766C28.2072 27.2997 27.9199 27.4741 27.5916 27.4331C27.1505 27.4331 26.6889 27.1356 26.6376 26.6637C26.5863 26.0892 26.7709 25.4326 27.2428 25.0735C27.7147 24.735 28.32 24.9197 28.8124 25.0941C28.8535 24.8068 28.8945 24.5196 28.9253 24.2221C27.9712 23.8835 26.6478 24.0374 26.0426 24.9607L26.022 24.7247C24.1139 24.7145 22.216 24.7247 20.3079 24.7145C20.3386 24.5298 20.3592 24.3554 20.3899 24.1708L25.981 24.2015L25.8271 23.6065L20.4002 23.5963L20.6054 23.0731L25.704 23.0628L25.4681 22.4883C24.0523 22.4986 22.1955 22.4986 20.7798 22.4883L21.0875 21.9856C22.4417 21.9651 23.8677 21.9959 25.2218 21.9754L24.8423 21.4111C23.7138 21.4009 22.493 21.4317 21.3645 21.4009L21.7441 20.8982L24.5961 20.8879L24.1241 20.2929L22.0621 20.2724L22.452 19.739L23.7548 19.7595C23.5599 19.544 23.365 19.3183 23.1496 19.1234C24.2678 18.1181 25.6322 17.4102 27.1197 17.0511Z" fill="#FFAA00"/>
<path d="M25.3245 3.45813C27.048 2.7913 29.0074 2.8426 30.7412 3.45813C30.6078 4.27883 30.4642 5.09954 30.3205 5.92025C29.3767 5.4586 28.2995 5.25342 27.2634 5.38679C26.812 5.44834 26.2991 5.62274 26.0836 6.06387C25.9503 6.35112 26.1247 6.6794 26.3606 6.86406C27.2121 7.53089 28.3098 7.78736 29.151 8.48496C29.8179 8.9979 30.3308 9.78783 30.2898 10.6598C30.3411 11.7575 29.7666 12.8347 28.874 13.4708C27.7353 14.2915 26.2991 14.5274 24.9244 14.5479C23.7959 14.4864 22.6469 14.3838 21.6005 13.9427C21.7031 13.0912 21.8775 12.25 22.0109 11.4087C23.1804 11.973 24.4935 12.3115 25.7964 12.1371C26.1965 12.0653 26.6171 11.9319 26.8941 11.6139C27.1095 11.3677 27.1506 10.9676 26.9556 10.7009C26.6581 10.2905 26.1862 10.0853 25.7451 9.85964C24.8115 9.42877 23.837 8.92609 23.2419 8.05409C22.688 7.2539 22.7393 6.17672 23.1599 5.33549C23.5907 4.43272 24.432 3.81719 25.3245 3.45813Z" fill="#004489"/>
<path d="M3.4834 3.19189C5.09404 3.19189 6.70467 3.19189 8.30505 3.19189C8.71541 3.19189 9.15654 3.26371 9.45404 3.56121C9.71051 3.80743 9.77207 4.17674 9.84388 4.50503C10.1619 6.10541 10.5107 7.69553 10.8287 9.29591C10.0285 7.31595 8.48971 5.67453 6.61234 4.66917C5.63775 4.12545 4.57084 3.72535 3.4834 3.45862C3.4834 3.38681 3.4834 3.25345 3.4834 3.19189Z" fill="#FFAA00"/>
<path d="M14.0911 3.18165C15.1785 3.17139 16.2659 3.18165 17.3534 3.18165C15.7735 6.9056 14.1526 10.609 12.5727 14.3433C11.4853 14.3638 10.3979 14.3433 9.31044 14.3535C8.41792 11.122 7.49462 7.90071 6.62262 4.66918C8.49999 5.67454 10.0286 7.31596 10.839 9.29591L10.8493 9.32669C10.9519 9.7986 11.0442 10.2705 11.1365 10.7527C12.1316 8.22899 13.1062 5.70532 14.0911 3.18165ZM18.5537 3.17139C19.5693 3.17139 20.5952 3.18165 21.621 3.17139C21.0055 6.89534 20.3592 10.6193 19.7232 14.3433C18.6973 14.3433 17.6714 14.3433 16.6455 14.3433C17.2816 10.6193 17.9073 6.89534 18.5537 3.17139ZM35.9219 3.1919C36.7939 3.16113 37.6659 3.18165 38.5379 3.18165C39.3586 6.91586 40.1998 10.6398 41 14.374C40.0459 14.374 39.1021 14.374 38.148 14.374C38.0249 13.8201 37.9018 13.2661 37.789 12.7121C36.4964 12.6813 35.1935 12.6916 33.9009 12.7018C33.6957 13.2661 33.4803 13.8098 33.2751 14.374C32.1979 14.374 31.1207 14.374 30.0436 14.374C31.5516 10.9476 33.0699 7.52113 34.5882 4.09468C34.7831 3.5407 35.3474 3.21242 35.9219 3.1919ZM36.3733 6.30033C36.6913 7.64424 36.9683 8.99841 37.2658 10.3526C36.4451 10.3526 35.6244 10.3628 34.8037 10.3423C35.3371 9.00867 35.8603 7.6545 36.3733 6.30033Z" fill="#004489"/>
<path d="M8.76691 28.2334C9.03364 26.8792 9.2183 25.5148 9.49528 24.1606C9.96719 24.1709 10.4494 24.1709 10.9213 24.1606C11.0239 24.9301 11.0239 25.7097 11.0546 26.4791C11.4137 25.6687 11.7215 24.9198 12.0908 24.1606C12.5935 24.1606 13.1064 24.1401 13.6091 24.1812C13.3629 25.5353 13.1474 26.8895 12.8807 28.2334C12.6037 28.2231 12.3165 28.2231 12.0395 28.2334C12.2241 27.228 12.4088 26.2227 12.5729 25.2173C12.101 26.2022 11.742 27.2383 11.3008 28.2334H10.3365L10.316 27.8846C10.2852 26.9818 10.2237 26.0893 10.1724 25.1968L9.63891 28.2334H8.76691ZM36.2401 24.2427C36.5273 24.2119 36.8146 24.2325 37.0916 24.2427C36.8043 25.5661 36.6299 26.9203 36.3632 28.2539C36.0862 28.2539 35.7887 28.2539 35.522 28.2539C35.522 28.1719 35.5733 28.0077 35.5733 27.9256C35.327 28.1308 35.0193 28.336 34.6807 28.295C33.9421 28.2437 33.5317 27.6179 33.5625 26.9921C33.4805 26.0585 34.1575 24.9198 35.1937 24.9608C35.5425 24.9608 35.7682 25.166 36.0144 25.3507C36.0965 24.9711 36.158 24.612 36.2401 24.2427ZM14.0502 25.0019C14.7273 24.8377 15.548 24.7351 16.1533 25.1763C16.5021 25.4225 16.3995 25.8841 16.3482 26.2432C16.2148 26.91 16.102 27.5768 15.9481 28.2437C15.7019 28.2437 15.4659 28.2437 15.2197 28.2539C15.2197 28.1821 15.2095 28.0282 15.2095 27.9564C14.7581 28.2744 14.1118 28.4386 13.6296 28.1206C13.1269 27.7512 13.1987 26.9511 13.6296 26.5612C14.1118 26.079 14.8196 26.1611 15.4454 26.1406C15.4659 25.9765 15.4659 25.72 15.2608 25.679C14.7786 25.5148 14.2759 25.7097 13.7835 25.7508C13.8656 25.4943 13.9168 25.2276 14.0502 25.0019ZM17.333 24.9403C17.8562 24.8172 18.4205 24.8275 18.9539 24.9198L18.8308 25.6277C18.4307 25.6174 17.9691 25.4533 17.6305 25.7097C17.4972 25.8636 17.6305 26.079 17.7844 26.1509C18.0922 26.315 18.4923 26.3458 18.6975 26.6638C18.995 27.228 18.6872 28.0282 18.0512 28.1821C17.4561 28.3257 16.8304 28.2847 16.2353 28.1411C16.2764 27.9051 16.3277 27.6692 16.379 27.4332C16.7893 27.5255 17.2305 27.6281 17.6511 27.5255C17.8152 27.4537 17.887 27.2896 17.8152 27.1255C17.5074 26.8279 16.9945 26.8279 16.738 26.4586C16.42 25.9149 16.697 25.0737 17.333 24.9403ZM32.9675 25.4225C33.1932 25.1147 33.5112 24.8685 33.9113 24.9198C33.86 25.166 33.7985 25.4122 33.7574 25.6482C33.501 25.6995 33.2137 25.7302 33.0291 25.9252C32.8239 26.0996 32.7829 26.3868 32.7316 26.633C32.629 27.1562 32.5879 27.6897 32.4341 28.2026C32.1571 28.2334 31.8698 28.2231 31.5928 28.2231C31.757 27.1152 31.9519 26.0175 32.1571 24.9198C32.4341 24.9198 32.7213 24.9198 32.9983 24.9198C32.988 25.1045 32.9778 25.2583 32.9675 25.4225Z" fill="white"/>
<path d="M34.8444 25.9046C35.0085 25.6789 35.3265 25.6173 35.5728 25.7302C36.2088 26.1405 35.4189 27.6486 34.9675 27.5562C34.116 27.5357 34.434 26.356 34.8444 25.9046ZM20.0101 26.3354C20.0101 26.3047 20.0204 26.2534 20.0306 26.2328L20.5949 26.2431C20.5743 26.4072 20.5538 26.5816 20.5538 26.7458H20.0819L20.0101 26.3354ZM24.6676 26.2226C25.0062 26.2328 25.3344 26.2328 25.673 26.2328C25.6627 26.4072 25.6627 26.5714 25.6627 26.7458C25.3037 26.7355 24.9446 26.7355 24.5753 26.7355C24.6061 26.5611 24.6266 26.397 24.6676 26.2226Z" fill="#FFAA00"/>
<path d="M14.2758 27.0645C14.5118 26.7054 14.9735 26.6747 15.3633 26.6849C15.3223 26.9311 15.2915 27.2081 15.0863 27.3825C14.8811 27.5877 14.44 27.6697 14.3066 27.5364C14.2143 27.4543 14.1527 27.2081 14.2758 27.0645Z" fill="#FF0004"/>
<path d="M29.592 27.0021C29.8382 26.6738 30.2691 26.6943 30.6282 26.6841C30.5974 26.9303 30.5769 27.2175 30.3614 27.3817C30.1563 27.5971 29.6843 27.6381 29.5818 27.5458C29.3458 27.433 29.4176 27.156 29.592 27.0021Z" fill="#FFAA00"/>
<path d="M24.5755 26.7358C24.9346 26.7358 25.2937 26.7358 25.663 26.7461C25.6938 26.9513 25.7348 27.1462 25.8066 27.3514C25.3655 27.3514 24.9243 27.3514 24.4935 27.3514C24.514 27.1359 24.5448 26.941 24.5755 26.7358Z" fill="#FF0004"/>
<path d="M21.3748 25.0741C21.939 24.7869 22.7084 24.7561 23.2111 25.1664C23.6625 25.5973 23.5394 26.2641 23.4368 26.8078C22.7597 26.8078 22.0827 26.7976 21.3953 26.8078C21.4774 27.0643 21.5902 27.3413 21.857 27.4542C22.3494 27.6286 22.8828 27.526 23.3547 27.3105C23.3035 27.5773 23.2522 27.844 23.2009 28.1107C22.534 28.2749 21.7646 28.3262 21.1491 27.9568C20.7285 27.7106 20.5541 27.1977 20.5438 26.736C20.5541 26.5719 20.5643 26.3975 20.5849 26.2334C20.708 25.782 20.9337 25.3101 21.3748 25.0741Z" fill="white"/>
<path d="M21.5388 26.182C21.6619 25.8845 21.8773 25.5049 22.2569 25.5664C22.5749 25.5767 22.6877 25.9255 22.739 26.182C22.3492 26.2025 21.9389 26.2025 21.5388 26.182Z" fill="#FF0004"/>
<path d="M19.5488 24.1604C19.8361 24.1604 20.1131 24.1604 20.3901 24.1809C20.3593 24.3656 20.3388 24.54 20.308 24.7246C20.2977 24.7759 20.2875 24.8785 20.2772 24.9298C20.4516 24.9401 20.6158 24.9401 20.7902 24.9503C20.7491 25.1658 20.7081 25.3915 20.667 25.6172C20.4926 25.6172 20.3182 25.6069 20.1438 25.6069C20.0926 25.8121 20.0515 26.0275 20.0207 26.2327C20.0207 26.2635 20.0105 26.3148 20.0002 26.3353C19.9284 26.7251 19.754 27.4227 19.8258 27.5253C19.9592 27.6689 20.2772 27.5458 20.5132 27.5561L20.3285 28.1408C20.0002 28.2845 19.6206 28.2742 19.2718 28.1921C19.0461 28.1511 18.8615 27.9254 18.9333 27.6997C19.118 26.5097 19.3437 25.3402 19.5488 24.1604ZM24.0217 24.9606C24.3192 24.9298 24.6064 24.9401 24.904 24.9401C24.8834 25.0427 24.8424 25.2581 24.8321 25.3709C25.1091 25.0734 25.4682 24.8888 25.8785 24.858C25.7657 25.1555 25.6528 25.4428 25.5605 25.7403C25.2015 25.7505 24.8424 25.8839 24.668 26.2224C24.6372 26.3968 24.6064 26.561 24.5757 26.7354C24.5449 26.9406 24.5141 27.1355 24.4833 27.3406C24.4526 27.5151 24.432 27.6792 24.4013 27.8536C24.3808 27.9767 24.35 28.0998 24.3192 28.2229C24.0217 28.2537 23.7242 28.2434 23.4369 28.2434C23.6421 27.1457 23.7857 26.048 24.0217 24.9606Z" fill="white"/>
</svg>
