<svg width="74" height="74" viewBox="0 0 74 74" fill="none" xmlns="http://www.w3.org/2000/svg">
<rect width="74" height="74" rx="37" fill="#F3F5F5"/>
<path d="M37 23.5C29.2344 23.5 23 29.7891 23 37.5C23 45.2656 29.2344 51.5 37 51.5C44.7109 51.5 51 45.2656 51 37.5C51 29.7891 44.7109 23.5 37 23.5ZM37 30.5C37.9297 30.5 38.75 31.3203 38.75 32.25C38.75 33.2344 37.9297 34 37 34C36.0156 34 35.25 33.2344 35.25 32.25C35.25 31.3203 36.0156 30.5 37 30.5ZM39.1875 44.5H34.8125C34.0469 44.5 33.5 43.9531 33.5 43.1875C33.5 42.4766 34.0469 41.875 34.8125 41.875H35.6875V38.375H35.25C34.4844 38.375 33.9375 37.8281 33.9375 37.0625C33.9375 36.3516 34.4844 35.75 35.25 35.75H37C37.7109 35.75 38.3125 36.3516 38.3125 37.0625V41.875H39.1875C39.8984 41.875 40.5 42.4766 40.5 43.1875C40.5 43.9531 39.8984 44.5 39.1875 44.5Z" fill="#9FC0D0"/>
</svg>
