<svg width="22" height="19" viewBox="0 0 22 19" fill="none" xmlns="http://www.w3.org/2000/svg">
<path opacity="0.2" d="M21.9531 9.5C21.9531 10.3438 21.2969 11 20.5 11H6.10938L11.0312 15.9688C11.6406 16.5312 11.6406 17.5156 11.0312 18.0781C10.75 18.3594 10.375 18.5 10 18.5C9.57812 18.5 9.20312 18.3594 8.92188 18.0781L1.42188 10.5781C0.8125 10.0156 0.8125 9.03125 1.42188 8.46875L8.92188 0.96875C9.48438 0.359375 10.4688 0.359375 11.0312 0.96875C11.6406 1.53125 11.6406 2.51562 11.0312 3.07812L6.10938 8H20.5C21.2969 8 21.9531 8.70312 21.9531 9.5Z" fill="#09090E"/>
</svg>
