<svg width="1440" height="1024" viewBox="0 0 1440 1024" fill="none" xmlns="http://www.w3.org/2000/svg">
<g clip-path="url(#clip0_12_2)">
<rect width="1440" height="1024" fill="white"/>
<g opacity="0.4" filter="url(#filter0_dddd_12_2)">
<path d="M71.8506 -1248.11L317.273 -1119.73L328.8 -842.994L94.9055 -694.644L-150.517 -823.028L-162.044 -1099.76L71.8506 -1248.11Z" fill="url(#paint0_linear_12_2)"/>
<path d="M-165.38 -794.615L80.0422 -666.231L91.5697 -389.497L-142.325 -241.147L-387.748 -369.531L-399.275 -646.265L-165.38 -794.615Z" fill="url(#paint1_linear_12_2)"/>
<path d="M-402.611 -341.118L-157.189 -212.734L-145.661 64.0003L-379.556 212.35L-624.978 83.9664L-636.506 -192.767L-402.611 -341.118Z" fill="url(#paint2_linear_12_2)"/>
<path d="M-639.842 112.38L-394.419 240.764L-382.892 517.498L-616.787 665.848L-862.209 537.464L-873.737 260.73L-639.842 112.38Z" fill="url(#paint3_linear_12_2)"/>
<path d="M845.156 -843.585L1090.58 -715.201L1102.11 -438.467L868.211 -290.117L622.789 -418.501L611.261 -695.235L845.156 -843.585Z" fill="url(#paint4_linear_12_2)"/>
<path d="M607.925 -390.088L853.348 -261.704L864.875 15.0302L630.98 163.38L385.558 34.9963L374.03 -241.738L607.925 -390.088Z" fill="url(#paint5_linear_12_2)"/>
<path d="M370.694 63.4095L616.117 191.793L627.644 468.527L393.749 616.877L148.327 488.493L136.8 211.759L370.694 63.4095Z" fill="url(#paint6_linear_12_2)"/>
<path d="M133.464 516.907L378.886 645.291L390.413 922.025L156.519 1070.37L-88.9038 941.991L-100.431 665.257L133.464 516.907Z" fill="url(#paint7_linear_12_2)"/>
<path d="M1618.46 -439.058L1863.88 -310.674L1875.41 -33.94L1641.52 114.41L1396.09 -13.9738L1384.57 -290.708L1618.46 -439.058Z" fill="url(#paint8_linear_12_2)"/>
<path d="M1381.23 14.4393L1626.65 142.823L1638.18 419.557L1404.29 567.907L1158.86 439.523L1147.34 162.789L1381.23 14.4393Z" fill="url(#paint9_linear_12_2)"/>
<path d="M1144 467.936L1389.42 596.32L1400.95 873.054L1167.05 1021.4L921.633 893.02L910.105 616.286L1144 467.936Z" fill="url(#paint10_linear_12_2)"/>
<path d="M906.769 921.434L1152.19 1049.82L1163.72 1326.55L929.824 1474.9L684.402 1346.52L672.874 1069.78L906.769 921.434Z" fill="url(#paint11_linear_12_2)"/>
<path d="M2391.77 -34.5309L2637.19 93.853L2648.72 370.587L2414.82 518.937L2169.4 390.553L2157.87 113.819L2391.77 -34.5309Z" fill="url(#paint12_linear_12_2)"/>
<path d="M2154.54 418.966L2399.96 547.35L2411.49 824.084L2177.59 972.434L1932.17 844.05L1920.64 567.316L2154.54 418.966Z" fill="url(#paint13_linear_12_2)"/>
<path d="M1917.31 872.463L2162.73 1000.85L2174.26 1277.58L1940.36 1425.93L1694.94 1297.55L1683.41 1020.81L1917.31 872.463Z" fill="url(#paint14_linear_12_2)"/>
<path d="M1680.07 1325.96L1925.5 1454.34L1937.02 1731.08L1703.13 1879.43L1457.71 1751.04L1446.18 1474.31L1680.07 1325.96Z" fill="url(#paint15_linear_12_2)"/>
<path d="M338.471 -818.943L583.893 -690.559L595.421 -413.826L361.526 -265.475L116.103 -393.859L104.576 -670.593L338.471 -818.943Z" fill="url(#paint16_linear_12_2)"/>
<path d="M101.24 -365.446L346.662 -237.062L358.19 39.6716L124.295 188.022L-121.127 59.6377L-132.655 -217.096L101.24 -365.446Z" fill="url(#paint17_linear_12_2)"/>
<path d="M-135.991 88.0509L109.432 216.435L120.959 493.169L-112.936 641.519L-358.358 513.135L-369.886 236.401L-135.991 88.0509Z" fill="url(#paint18_linear_12_2)"/>
<path d="M-373.222 541.548L-127.799 669.932L-116.272 946.666L-350.167 1095.02L-595.589 966.632L-607.116 689.898L-373.222 541.548Z" fill="url(#paint19_linear_12_2)"/>
<path d="M1111.78 -414.416L1357.2 -286.032L1368.73 -9.29857L1134.83 139.051L889.409 10.6676L877.881 -266.066L1111.78 -414.416Z" fill="url(#paint20_linear_12_2)"/>
<path d="M874.545 39.0807L1119.97 167.465L1131.5 444.199L897.6 592.549L652.178 464.165L640.651 187.431L874.545 39.0807Z" fill="url(#paint21_linear_12_2)"/>
<path d="M637.315 492.578L882.737 620.962L894.265 897.696L660.37 1046.05L414.947 917.662L403.42 640.928L637.315 492.578Z" fill="url(#paint22_linear_12_2)"/>
<path d="M400.084 946.075L645.506 1074.46L657.034 1351.19L423.139 1499.54L177.716 1371.16L166.189 1094.43L400.084 946.075Z" fill="url(#paint23_linear_12_2)"/>
<path d="M1885.08 -9.88939L2130.5 118.495L2142.03 395.228L1908.14 543.579L1662.71 415.195L1651.19 138.461L1885.08 -9.88939Z" fill="url(#paint24_linear_12_2)"/>
<path d="M1647.85 443.608L1893.27 571.992L1904.8 848.726L1670.91 997.076L1425.48 868.692L1413.96 591.958L1647.85 443.608Z" fill="url(#paint25_linear_12_2)"/>
<path d="M1410.62 897.105L1656.04 1025.49L1667.57 1302.22L1433.68 1450.57L1188.25 1322.19L1176.73 1045.45L1410.62 897.105Z" fill="url(#paint26_linear_12_2)"/>
<path d="M1173.39 1350.6L1418.81 1478.99L1430.34 1755.72L1196.44 1904.07L951.022 1775.69L939.494 1498.95L1173.39 1350.6Z" fill="url(#paint27_linear_12_2)"/>
<path d="M2658.39 394.638L2903.81 523.021L2915.34 799.755L2681.44 948.105L2436.02 819.721L2424.49 542.988L2658.39 394.638Z" fill="url(#paint28_linear_12_2)"/>
<path d="M2421.16 848.135L2666.58 976.519L2678.11 1253.25L2444.21 1401.6L2198.79 1273.22L2187.26 996.485L2421.16 848.135Z" fill="url(#paint29_linear_12_2)"/>
<path d="M2183.93 1301.63L2429.35 1430.02L2440.88 1706.75L2206.98 1855.1L1961.56 1726.72L1950.03 1449.98L2183.93 1301.63Z" fill="url(#paint30_linear_12_2)"/>
<path d="M1946.69 1755.13L2192.12 1883.51L2203.64 2160.25L1969.75 2308.6L1724.33 2180.21L1712.8 1903.48L1946.69 1755.13Z" fill="url(#paint31_linear_12_2)"/>
</g>
</g>
<defs>
<filter id="filter0_dddd_12_2" x="-930.737" y="-1305.11" width="3913.07" height="3680.71" filterUnits="userSpaceOnUse" color-interpolation-filters="sRGB">
<feFlood flood-opacity="0" result="BackgroundImageFix"/>
<feColorMatrix in="SourceAlpha" type="matrix" values="0 0 0 0 0 0 0 0 0 0 0 0 0 0 0 0 0 0 127 0" result="hardAlpha"/>
<feOffset dx="19" dy="19"/>
<feGaussianBlur stdDeviation="24"/>
<feColorMatrix type="matrix" values="0 0 0 0 0.862745 0 0 0 0 0.862745 0 0 0 0 0.862745 0 0 0 0.9 0"/>
<feBlend mode="normal" in2="BackgroundImageFix" result="effect1_dropShadow_12_2"/>
<feColorMatrix in="SourceAlpha" type="matrix" values="0 0 0 0 0 0 0 0 0 0 0 0 0 0 0 0 0 0 127 0" result="hardAlpha"/>
<feOffset dx="-19" dy="-19"/>
<feGaussianBlur stdDeviation="19"/>
<feColorMatrix type="matrix" values="0 0 0 0 1 0 0 0 0 1 0 0 0 0 1 0 0 0 0.9 0"/>
<feBlend mode="normal" in2="effect1_dropShadow_12_2" result="effect2_dropShadow_12_2"/>
<feColorMatrix in="SourceAlpha" type="matrix" values="0 0 0 0 0 0 0 0 0 0 0 0 0 0 0 0 0 0 127 0" result="hardAlpha"/>
<feOffset dx="19" dy="-19"/>
<feGaussianBlur stdDeviation="19"/>
<feColorMatrix type="matrix" values="0 0 0 0 0.862745 0 0 0 0 0.862745 0 0 0 0 0.862745 0 0 0 0.2 0"/>
<feBlend mode="normal" in2="effect2_dropShadow_12_2" result="effect3_dropShadow_12_2"/>
<feColorMatrix in="SourceAlpha" type="matrix" values="0 0 0 0 0 0 0 0 0 0 0 0 0 0 0 0 0 0 127 0" result="hardAlpha"/>
<feOffset dx="-19" dy="19"/>
<feGaussianBlur stdDeviation="19"/>
<feColorMatrix type="matrix" values="0 0 0 0 0.862745 0 0 0 0 0.862745 0 0 0 0 0.862745 0 0 0 0.2 0"/>
<feBlend mode="normal" in2="effect3_dropShadow_12_2" result="effect4_dropShadow_12_2"/>
<feBlend mode="normal" in="SourceGraphic" in2="effect4_dropShadow_12_2" result="shape"/>
</filter>
<linearGradient id="paint0_linear_12_2" x1="-15.8552" y1="1094.72" x2="1632.52" y2="926.11" gradientUnits="userSpaceOnUse">
<stop stop-color="#E8E8E8"/>
<stop offset="1" stop-color="white"/>
</linearGradient>
<linearGradient id="paint1_linear_12_2" x1="-15.8552" y1="1094.72" x2="1632.52" y2="926.11" gradientUnits="userSpaceOnUse">
<stop stop-color="#E8E8E8"/>
<stop offset="1" stop-color="white"/>
</linearGradient>
<linearGradient id="paint2_linear_12_2" x1="-15.8552" y1="1094.72" x2="1632.52" y2="926.11" gradientUnits="userSpaceOnUse">
<stop stop-color="#E8E8E8"/>
<stop offset="1" stop-color="white"/>
</linearGradient>
<linearGradient id="paint3_linear_12_2" x1="-15.8552" y1="1094.72" x2="1632.52" y2="926.11" gradientUnits="userSpaceOnUse">
<stop stop-color="#E8E8E8"/>
<stop offset="1" stop-color="white"/>
</linearGradient>
<linearGradient id="paint4_linear_12_2" x1="-15.8552" y1="1094.72" x2="1632.52" y2="926.11" gradientUnits="userSpaceOnUse">
<stop stop-color="#E8E8E8"/>
<stop offset="1" stop-color="white"/>
</linearGradient>
<linearGradient id="paint5_linear_12_2" x1="-15.8552" y1="1094.72" x2="1632.52" y2="926.11" gradientUnits="userSpaceOnUse">
<stop stop-color="#E8E8E8"/>
<stop offset="1" stop-color="white"/>
</linearGradient>
<linearGradient id="paint6_linear_12_2" x1="-15.8552" y1="1094.72" x2="1632.52" y2="926.11" gradientUnits="userSpaceOnUse">
<stop stop-color="#E8E8E8"/>
<stop offset="1" stop-color="white"/>
</linearGradient>
<linearGradient id="paint7_linear_12_2" x1="-15.8552" y1="1094.72" x2="1632.52" y2="926.11" gradientUnits="userSpaceOnUse">
<stop stop-color="#E8E8E8"/>
<stop offset="1" stop-color="white"/>
</linearGradient>
<linearGradient id="paint8_linear_12_2" x1="-15.8552" y1="1094.72" x2="1632.52" y2="926.11" gradientUnits="userSpaceOnUse">
<stop stop-color="#E8E8E8"/>
<stop offset="1" stop-color="white"/>
</linearGradient>
<linearGradient id="paint9_linear_12_2" x1="-15.8552" y1="1094.72" x2="1632.52" y2="926.11" gradientUnits="userSpaceOnUse">
<stop stop-color="#E8E8E8"/>
<stop offset="1" stop-color="white"/>
</linearGradient>
<linearGradient id="paint10_linear_12_2" x1="-15.8552" y1="1094.72" x2="1632.52" y2="926.11" gradientUnits="userSpaceOnUse">
<stop stop-color="#E8E8E8"/>
<stop offset="1" stop-color="white"/>
</linearGradient>
<linearGradient id="paint11_linear_12_2" x1="-15.8552" y1="1094.72" x2="1632.52" y2="926.11" gradientUnits="userSpaceOnUse">
<stop stop-color="#E8E8E8"/>
<stop offset="1" stop-color="white"/>
</linearGradient>
<linearGradient id="paint12_linear_12_2" x1="-15.8552" y1="1094.72" x2="1632.52" y2="926.11" gradientUnits="userSpaceOnUse">
<stop stop-color="#E8E8E8"/>
<stop offset="1" stop-color="white"/>
</linearGradient>
<linearGradient id="paint13_linear_12_2" x1="-15.8552" y1="1094.72" x2="1632.52" y2="926.11" gradientUnits="userSpaceOnUse">
<stop stop-color="#E8E8E8"/>
<stop offset="1" stop-color="white"/>
</linearGradient>
<linearGradient id="paint14_linear_12_2" x1="-15.8552" y1="1094.72" x2="1632.52" y2="926.11" gradientUnits="userSpaceOnUse">
<stop stop-color="#E8E8E8"/>
<stop offset="1" stop-color="white"/>
</linearGradient>
<linearGradient id="paint15_linear_12_2" x1="-15.8552" y1="1094.72" x2="1632.52" y2="926.11" gradientUnits="userSpaceOnUse">
<stop stop-color="#E8E8E8"/>
<stop offset="1" stop-color="white"/>
</linearGradient>
<linearGradient id="paint16_linear_12_2" x1="-15.8552" y1="1094.72" x2="1632.52" y2="926.11" gradientUnits="userSpaceOnUse">
<stop stop-color="#E8E8E8"/>
<stop offset="1" stop-color="white"/>
</linearGradient>
<linearGradient id="paint17_linear_12_2" x1="-15.8552" y1="1094.72" x2="1632.52" y2="926.11" gradientUnits="userSpaceOnUse">
<stop stop-color="#E8E8E8"/>
<stop offset="1" stop-color="white"/>
</linearGradient>
<linearGradient id="paint18_linear_12_2" x1="-15.8552" y1="1094.72" x2="1632.52" y2="926.11" gradientUnits="userSpaceOnUse">
<stop stop-color="#E8E8E8"/>
<stop offset="1" stop-color="white"/>
</linearGradient>
<linearGradient id="paint19_linear_12_2" x1="-15.8552" y1="1094.72" x2="1632.52" y2="926.11" gradientUnits="userSpaceOnUse">
<stop stop-color="#E8E8E8"/>
<stop offset="1" stop-color="white"/>
</linearGradient>
<linearGradient id="paint20_linear_12_2" x1="-15.8552" y1="1094.72" x2="1632.52" y2="926.11" gradientUnits="userSpaceOnUse">
<stop stop-color="#E8E8E8"/>
<stop offset="1" stop-color="white"/>
</linearGradient>
<linearGradient id="paint21_linear_12_2" x1="-15.8552" y1="1094.72" x2="1632.52" y2="926.11" gradientUnits="userSpaceOnUse">
<stop stop-color="#E8E8E8"/>
<stop offset="1" stop-color="white"/>
</linearGradient>
<linearGradient id="paint22_linear_12_2" x1="-15.8552" y1="1094.72" x2="1632.52" y2="926.11" gradientUnits="userSpaceOnUse">
<stop stop-color="#E8E8E8"/>
<stop offset="1" stop-color="white"/>
</linearGradient>
<linearGradient id="paint23_linear_12_2" x1="-15.8552" y1="1094.72" x2="1632.52" y2="926.11" gradientUnits="userSpaceOnUse">
<stop stop-color="#E8E8E8"/>
<stop offset="1" stop-color="white"/>
</linearGradient>
<linearGradient id="paint24_linear_12_2" x1="-15.8552" y1="1094.72" x2="1632.52" y2="926.11" gradientUnits="userSpaceOnUse">
<stop stop-color="#E8E8E8"/>
<stop offset="1" stop-color="white"/>
</linearGradient>
<linearGradient id="paint25_linear_12_2" x1="-15.8552" y1="1094.72" x2="1632.52" y2="926.11" gradientUnits="userSpaceOnUse">
<stop stop-color="#E8E8E8"/>
<stop offset="1" stop-color="white"/>
</linearGradient>
<linearGradient id="paint26_linear_12_2" x1="-15.8552" y1="1094.72" x2="1632.52" y2="926.11" gradientUnits="userSpaceOnUse">
<stop stop-color="#E8E8E8"/>
<stop offset="1" stop-color="white"/>
</linearGradient>
<linearGradient id="paint27_linear_12_2" x1="-15.8552" y1="1094.72" x2="1632.52" y2="926.11" gradientUnits="userSpaceOnUse">
<stop stop-color="#E8E8E8"/>
<stop offset="1" stop-color="white"/>
</linearGradient>
<linearGradient id="paint28_linear_12_2" x1="-15.8552" y1="1094.72" x2="1632.52" y2="926.11" gradientUnits="userSpaceOnUse">
<stop stop-color="#E8E8E8"/>
<stop offset="1" stop-color="white"/>
</linearGradient>
<linearGradient id="paint29_linear_12_2" x1="-15.8552" y1="1094.72" x2="1632.52" y2="926.11" gradientUnits="userSpaceOnUse">
<stop stop-color="#E8E8E8"/>
<stop offset="1" stop-color="white"/>
</linearGradient>
<linearGradient id="paint30_linear_12_2" x1="-15.8552" y1="1094.72" x2="1632.52" y2="926.11" gradientUnits="userSpaceOnUse">
<stop stop-color="#E8E8E8"/>
<stop offset="1" stop-color="white"/>
</linearGradient>
<linearGradient id="paint31_linear_12_2" x1="-15.8552" y1="1094.72" x2="1632.52" y2="926.11" gradientUnits="userSpaceOnUse">
<stop stop-color="#E8E8E8"/>
<stop offset="1" stop-color="white"/>
</linearGradient>
<clipPath id="clip0_12_2">
<rect width="1440" height="1024" fill="white"/>
</clipPath>
</defs>
</svg>
