<svg width="29" height="29" viewBox="0 0 29 29" fill="none" xmlns="http://www.w3.org/2000/svg">
<path d="M13.1406 1.48438C14.125 0.5 15.8203 0.5 16.8047 1.48438L19.375 4H22.875C24.2969 4 25.5 5.20312 25.5 6.625V10.125L27.9609 12.6406C29 13.6797 29 15.3203 27.9609 16.3594L25.5 18.875V22.375C25.5 23.8516 24.2969 25 22.875 25H19.3203L16.8047 27.5156C15.8203 28.5 14.125 28.5 13.1406 27.5156L10.625 25H7.125C5.64844 25 4.5 23.8516 4.5 22.375V18.875L1.98438 16.3594C0.945312 15.3203 0.945312 13.6797 1.98438 12.6406L4.5 10.125V6.625C4.5 5.20312 5.64844 4 7.125 4H10.5703L13.1406 1.48438ZM10.2422 9.63281C9.96875 10.2891 10.3516 11.0547 11.0078 11.3281C11.7188 11.5469 12.4844 11.2188 12.7031 10.5078L12.7578 10.4531C12.8125 10.2891 12.9766 10.125 13.1406 10.125H16.3125C16.8047 10.125 17.1875 10.5078 17.1875 11C17.1875 11.2734 17.0234 11.5469 16.75 11.7109L14.3438 13.0781C13.9062 13.2969 13.6875 13.7344 13.6875 14.2266V14.9375C13.6875 15.7031 14.2344 16.25 15 16.25C15.7109 16.25 16.2578 15.7031 16.2578 14.9922L18.0625 13.9531C19.1016 13.3516 19.8125 12.2031 19.8125 11C19.8125 9.08594 18.2266 7.5 16.3125 7.5H13.1406C11.8281 7.5 10.6797 8.32031 10.2422 9.57812V9.63281ZM15 18C14.0156 18 13.25 18.8203 13.25 19.75C13.25 20.7344 14.0156 21.5 15 21.5C15.9297 21.5 16.75 20.7344 16.75 19.75C16.75 18.8203 15.9297 18 15 18Z" fill="#9FC0D0"/>
</svg>
