<svg width="74" height="74" viewBox="0 0 74 74" fill="none" xmlns="http://www.w3.org/2000/svg">
<rect width="74" height="74" rx="37" fill="#F3F5F5"/>
<path d="M35.1406 24.4844C36.125 23.5 37.8203 23.5 38.8047 24.4844L41.375 27H44.875C46.2969 27 47.5 28.2031 47.5 29.625V33.125L49.9609 35.6406C51 36.6797 51 38.3203 49.9609 39.3594L47.5 41.875V45.375C47.5 46.8516 46.2969 48 44.875 48H41.3203L38.8047 50.5156C37.8203 51.5 36.125 51.5 35.1406 50.5156L32.625 48H29.125C27.6484 48 26.5 46.8516 26.5 45.375V41.875L23.9844 39.3594C22.9453 38.3203 22.9453 36.6797 23.9844 35.6406L26.5 33.125V29.625C26.5 28.2031 27.6484 27 29.125 27H32.5703L35.1406 24.4844ZM32.2422 32.6328C31.9688 33.2891 32.3516 34.0547 33.0078 34.3281C33.7188 34.5469 34.4844 34.2188 34.7031 33.5078L34.7578 33.4531C34.8125 33.2891 34.9766 33.125 35.1406 33.125H38.3125C38.8047 33.125 39.1875 33.5078 39.1875 34C39.1875 34.2734 39.0234 34.5469 38.75 34.7109L36.3438 36.0781C35.9062 36.2969 35.6875 36.7344 35.6875 37.2266V37.9375C35.6875 38.7031 36.2344 39.25 37 39.25C37.7109 39.25 38.2578 38.7031 38.2578 37.9922L40.0625 36.9531C41.1016 36.3516 41.8125 35.2031 41.8125 34C41.8125 32.0859 40.2266 30.5 38.3125 30.5H35.1406C33.8281 30.5 32.6797 31.3203 32.2422 32.5781V32.6328ZM37 41C36.0156 41 35.25 41.8203 35.25 42.75C35.25 43.7344 36.0156 44.5 37 44.5C37.9297 44.5 38.75 43.7344 38.75 42.75C38.75 41.8203 37.9297 41 37 41Z" fill="#9FC0D0"/>
</svg>
