<svg width="388" height="365" viewBox="0 0 388 365" fill="none" xmlns="http://www.w3.org/2000/svg">
<g filter="url(#filter0_dddddd_85_3739)">
<path d="M146.047 6.32352e-07L241.953 0L289.907 83.0574L241.953 166.115H146.047L98.0938 83.0574L146.047 6.32352e-07Z" fill="#FEFEFE"/>
<path d="M98.6711 83.0574L146.336 0.500001L241.665 0.5L289.329 83.0574L241.665 165.615H146.336L98.6711 83.0574Z" stroke="url(#paint0_radial_85_3739)"/>
</g>
<path d="M171.538 102.849C169.419 102.849 167.407 102.518 165.501 101.855C163.607 101.18 161.926 100.121 160.459 98.6764C158.991 97.2323 157.837 95.3501 156.996 93.0301C156.168 90.71 155.759 87.8987 155.771 84.5961C155.783 81.6487 156.162 78.9972 156.908 76.6416C157.665 74.286 158.736 72.2796 160.121 70.6224C161.518 68.9652 163.187 67.6986 165.128 66.8227C167.07 65.9349 169.23 65.491 171.609 65.491C174.284 65.491 176.64 66.0059 178.676 67.0358C180.712 68.0656 182.334 69.4446 183.541 71.1728C184.76 72.8892 185.47 74.7832 185.672 76.8546H175.942C175.717 75.8248 175.196 75.0732 174.379 74.5997C173.574 74.1144 172.651 73.8717 171.609 73.8717C169.538 73.8717 168.017 74.7713 167.046 76.5706C166.087 78.3698 165.596 80.7372 165.572 83.6728H165.785C166.247 82.5601 166.945 81.6073 167.881 80.8142C168.816 80.0211 169.905 79.4115 171.148 78.9853C172.39 78.5592 173.704 78.3461 175.089 78.3461C177.291 78.3461 179.215 78.8433 180.86 79.8376C182.517 80.8319 183.807 82.1932 184.731 83.9214C185.654 85.6496 186.11 87.6264 186.098 89.8518C186.11 92.456 185.494 94.7346 184.251 96.6877C183.02 98.6409 181.31 100.156 179.12 101.233C176.93 102.31 174.403 102.849 171.538 102.849ZM171.467 95.3916C172.45 95.3916 173.32 95.1667 174.077 94.7169C174.847 94.2671 175.444 93.6515 175.871 92.8703C176.309 92.089 176.522 91.2012 176.51 90.2069C176.522 89.2008 176.309 88.313 175.871 87.5436C175.444 86.7623 174.847 86.1468 174.077 85.697C173.32 85.2472 172.45 85.0223 171.467 85.0223C170.745 85.0223 170.076 85.1525 169.461 85.4129C168.857 85.6615 168.33 86.0225 167.881 86.496C167.431 86.9576 167.076 87.5081 166.815 88.1473C166.567 88.7746 166.436 89.4612 166.425 90.2069C166.436 91.2012 166.661 92.089 167.099 92.8703C167.537 93.6515 168.135 94.2671 168.893 94.7169C169.65 95.1667 170.508 95.3916 171.467 95.3916ZM198.789 97.3802L198.647 99.3689C198.528 101.073 198.244 102.707 197.794 104.269C197.356 105.832 196.889 107.217 196.392 108.424C195.906 109.632 195.522 110.567 195.238 111.23H189.201C189.39 110.567 189.656 109.608 190 108.353C190.355 107.11 190.674 105.702 190.958 104.127C191.254 102.565 191.402 100.979 191.402 99.3689V97.3802H198.789ZM218.706 102.849C216.587 102.849 214.575 102.518 212.669 101.855C210.775 101.18 209.094 100.121 207.627 98.6764C206.159 97.2323 205.005 95.3501 204.164 93.0301C203.336 90.71 202.927 87.8987 202.939 84.5961C202.951 81.6487 203.33 78.9972 204.075 76.6416C204.833 74.286 205.904 72.2796 207.289 70.6224C208.686 68.9652 210.355 67.6986 212.296 66.8227C214.238 65.9349 216.398 65.491 218.777 65.491C221.452 65.491 223.808 66.0059 225.844 67.0358C227.88 68.0656 229.502 69.4446 230.709 71.1728C231.928 72.8892 232.638 74.7832 232.84 76.8546H223.11C222.885 75.8248 222.364 75.0732 221.547 74.5997C220.742 74.1144 219.819 73.8717 218.777 73.8717C216.706 73.8717 215.185 74.7713 214.214 76.5706C213.255 78.3698 212.764 80.7372 212.74 83.6728H212.953C213.415 82.5601 214.113 81.6073 215.048 80.8142C215.984 80.0211 217.073 79.4115 218.316 78.9853C219.558 78.5592 220.872 78.3461 222.257 78.3461C224.459 78.3461 226.383 78.8433 228.028 79.8376C229.685 80.8319 230.975 82.1932 231.899 83.9214C232.822 85.6496 233.278 87.6264 233.266 89.8518C233.278 92.456 232.662 94.7346 231.419 96.6877C230.188 98.6409 228.478 100.156 226.288 101.233C224.098 102.31 221.571 102.849 218.706 102.849ZM218.635 95.3916C219.618 95.3916 220.488 95.1667 221.245 94.7169C222.015 94.2671 222.612 93.6515 223.039 92.8703C223.477 92.089 223.69 91.2012 223.678 90.2069C223.69 89.2008 223.477 88.313 223.039 87.5436C222.612 86.7623 222.015 86.1468 221.245 85.697C220.488 85.2472 219.618 85.0223 218.635 85.0223C217.913 85.0223 217.244 85.1525 216.629 85.4129C216.025 85.6615 215.498 86.0225 215.048 86.496C214.599 86.9576 214.244 87.5081 213.983 88.1473C213.735 88.7746 213.604 89.4612 213.593 90.2069C213.604 91.2012 213.829 92.089 214.267 92.8703C214.705 93.6515 215.303 94.2671 216.061 94.7169C216.818 95.1667 217.676 95.3916 218.635 95.3916Z" fill="url(#paint1_radial_85_3739)"/>
<defs>
<filter id="filter0_dddddd_85_3739" x="0.09375" y="0" width="387.813" height="364.115" filterUnits="userSpaceOnUse" color-interpolation-filters="sRGB">
<feFlood flood-opacity="0" result="BackgroundImageFix"/>
<feColorMatrix in="SourceAlpha" type="matrix" values="0 0 0 0 0 0 0 0 0 0 0 0 0 0 0 0 0 0 127 0" result="hardAlpha"/>
<feOffset dy="2.76726"/>
<feGaussianBlur stdDeviation="1.35596"/>
<feColorMatrix type="matrix" values="0 0 0 0 0.105882 0 0 0 0 0.560784 0 0 0 0 0.780392 0 0 0 0.0559306 0"/>
<feBlend mode="normal" in2="BackgroundImageFix" result="effect1_dropShadow_85_3739"/>
<feColorMatrix in="SourceAlpha" type="matrix" values="0 0 0 0 0 0 0 0 0 0 0 0 0 0 0 0 0 0 127 0" result="hardAlpha"/>
<feOffset dy="6.6501"/>
<feGaussianBlur stdDeviation="3.25855"/>
<feColorMatrix type="matrix" values="0 0 0 0 0.105882 0 0 0 0 0.560784 0 0 0 0 0.780392 0 0 0 0.0672788 0"/>
<feBlend mode="normal" in2="effect1_dropShadow_85_3739" result="effect2_dropShadow_85_3739"/>
<feColorMatrix in="SourceAlpha" type="matrix" values="0 0 0 0 0 0 0 0 0 0 0 0 0 0 0 0 0 0 127 0" result="hardAlpha"/>
<feOffset dy="12.5216"/>
<feGaussianBlur stdDeviation="6.13556"/>
<feColorMatrix type="matrix" values="0 0 0 0 0.105882 0 0 0 0 0.560784 0 0 0 0 0.780392 0 0 0 0.0713751 0"/>
<feBlend mode="normal" in2="effect2_dropShadow_85_3739" result="effect3_dropShadow_85_3739"/>
<feColorMatrix in="SourceAlpha" type="matrix" values="0 0 0 0 0 0 0 0 0 0 0 0 0 0 0 0 0 0 127 0" result="hardAlpha"/>
<feOffset dy="22.3363"/>
<feGaussianBlur stdDeviation="10.9448"/>
<feColorMatrix type="matrix" values="0 0 0 0 0.105882 0 0 0 0 0.560784 0 0 0 0 0.780392 0 0 0 0.076624 0"/>
<feBlend mode="normal" in2="effect3_dropShadow_85_3739" result="effect4_dropShadow_85_3739"/>
<feColorMatrix in="SourceAlpha" type="matrix" values="0 0 0 0 0 0 0 0 0 0 0 0 0 0 0 0 0 0 127 0" result="hardAlpha"/>
<feOffset dy="41.7776"/>
<feGaussianBlur stdDeviation="20.471"/>
<feColorMatrix type="matrix" values="0 0 0 0 0.105882 0 0 0 0 0.560784 0 0 0 0 0.780392 0 0 0 0.0916913 0"/>
<feBlend mode="normal" in2="effect4_dropShadow_85_3739" result="effect5_dropShadow_85_3739"/>
<feColorMatrix in="SourceAlpha" type="matrix" values="0 0 0 0 0 0 0 0 0 0 0 0 0 0 0 0 0 0 127 0" result="hardAlpha"/>
<feOffset dy="100"/>
<feGaussianBlur stdDeviation="49"/>
<feColorMatrix type="matrix" values="0 0 0 0 0.105882 0 0 0 0 0.560784 0 0 0 0 0.780392 0 0 0 0.15 0"/>
<feBlend mode="normal" in2="effect5_dropShadow_85_3739" result="effect6_dropShadow_85_3739"/>
<feBlend mode="normal" in="SourceGraphic" in2="effect6_dropShadow_85_3739" result="shape"/>
</filter>
<radialGradient id="paint0_radial_85_3739" cx="0" cy="0" r="1" gradientUnits="userSpaceOnUse" gradientTransform="translate(99.9743 -0.000535881) rotate(36.0306) scale(239.179 7286.33)">
<stop stop-color="#9E68F8"/>
<stop offset="1" stop-color="#537BEE"/>
</radialGradient>
<radialGradient id="paint1_radial_85_3739" cx="0" cy="0" r="1" gradientUnits="userSpaceOnUse" gradientTransform="translate(154.427 53.3516) rotate(31.9967) scale(97.5017 2805.94)">
<stop stop-color="#9E68F8"/>
<stop offset="1" stop-color="#537BEE"/>
</radialGradient>
</defs>
</svg>
