<svg width="74" height="75" viewBox="0 0 74 75" fill="none" xmlns="http://www.w3.org/2000/svg">
<rect y="0.114746" width="74" height="74" rx="37" fill="#F3F5F5"/>
<path d="M37 26.5679L39.4062 24.0522C39.7891 23.7241 40.2266 23.5601 40.7188 23.6694C41.1562 23.8335 41.5391 24.1616 41.6484 24.6538L42.5234 28.0444L45.9141 27.1147C46.3516 26.9507 46.8438 27.1147 47.1719 27.4429C47.5 27.771 47.6641 28.2632 47.5 28.7007L46.5703 32.0913L49.9609 32.9663C50.4531 33.0757 50.7812 33.4585 50.9453 33.896C51.0547 34.3335 50.8906 34.8257 50.5625 35.1538L48.0469 37.6147L50.5625 40.0757C50.8906 40.4038 51.0547 40.896 50.9453 41.3882C50.7812 41.8257 50.4531 42.2085 49.9609 42.3179L46.5703 43.1929L47.5 46.5835C47.6641 47.021 47.5 47.5132 47.1719 47.8413C46.8438 48.1694 46.3516 48.3335 45.9141 48.1694L42.5234 47.2397L41.6484 50.6304C41.5391 51.1226 41.1562 51.4507 40.7188 51.6147C40.2266 51.7241 39.7891 51.5601 39.4062 51.2319L37 48.7163L34.5391 51.2319C34.1562 51.5601 33.7188 51.7241 33.2266 51.6147C32.7891 51.4507 32.4062 51.1226 32.2969 50.6304L31.4219 47.2397L28.0312 48.1694C27.5938 48.3335 27.1016 48.1694 26.7734 47.8413C26.4453 47.5132 26.2812 47.021 26.4453 46.5835L27.375 43.1929L23.9844 42.3179C23.4922 42.2085 23.1641 41.8257 23 41.3882C22.8906 40.896 23.0547 40.4038 23.3828 40.0757L25.8984 37.6147L23.3828 35.1538C23.0547 34.8257 22.8906 34.3335 23 33.896C23.1641 33.4585 23.4922 33.0757 23.9844 32.9663L27.375 32.0913L26.4453 28.7007C26.2812 28.2632 26.4453 27.771 26.7734 27.4429C27.1016 27.1147 27.5938 26.9507 28.0312 27.1147L31.4219 28.0444L32.2969 24.6538C32.4062 24.1616 32.7891 23.8335 33.2266 23.6694C33.7188 23.5601 34.1562 23.7241 34.5391 24.0522L37 26.5679Z" fill="#9FC0D0"/>
</svg>
