<svg width="389" height="365" viewBox="0 0 389 365" fill="none" xmlns="http://www.w3.org/2000/svg">
<g filter="url(#filter0_dddddd_85_3734)">
<path d="M146.38 6.32352e-07L242.287 0L290.24 83.0574L242.287 166.115H146.38L98.427 83.0574L146.38 6.32352e-07Z" fill="#FEFEFE"/>
<path d="M99.0044 83.0574L146.669 0.500001L241.998 0.5L289.662 83.0574L241.998 165.615H146.669L99.0044 83.0574Z" stroke="url(#paint0_radial_85_3734)"/>
</g>
<path d="M164.201 102.849C161.407 102.849 158.928 102.358 156.761 101.375C154.607 100.381 152.908 99.0137 151.665 97.2737C150.434 95.5336 149.807 93.5332 149.783 91.2723H159.371C159.407 92.527 159.892 93.5272 160.827 94.273C161.774 95.0187 162.899 95.3916 164.201 95.3916C165.207 95.3916 166.095 95.1785 166.864 94.7524C167.634 94.3144 168.237 93.6989 168.675 92.9058C169.113 92.1127 169.326 91.1894 169.315 90.1359C169.326 89.0706 169.113 88.1473 168.675 87.366C168.237 86.5729 167.634 85.9633 166.864 85.5372C166.095 85.0992 165.207 84.8802 164.201 84.8802C163.159 84.8802 162.195 85.1347 161.307 85.6437C160.431 86.1409 159.786 86.8333 159.371 87.7211L150.707 86.0166L152.127 65.9882H176.559V73.8717H160.224L159.513 81.8973H159.727C160.295 80.7964 161.277 79.8849 162.674 79.1629C164.071 78.429 165.692 78.062 167.539 78.062C169.705 78.062 171.635 78.5651 173.327 79.5713C175.032 80.5774 176.375 81.9683 177.358 83.7439C178.352 85.5076 178.844 87.5436 178.832 89.8518C178.844 92.385 178.24 94.634 177.021 96.599C175.813 98.5521 174.115 100.085 171.925 101.198C169.735 102.299 167.16 102.849 164.201 102.849ZM184.722 102.352L198.998 74.0848V73.8717H182.236V65.9882H209.225V73.8717L194.878 102.352H184.722ZM216.216 102.352L230.492 74.0848V73.8717H213.73V65.9882H240.719V73.8717L226.373 102.352H216.216Z" fill="url(#paint1_radial_85_3734)"/>
<defs>
<filter id="filter0_dddddd_85_3734" x="0.427002" y="0" width="387.813" height="364.115" filterUnits="userSpaceOnUse" color-interpolation-filters="sRGB">
<feFlood flood-opacity="0" result="BackgroundImageFix"/>
<feColorMatrix in="SourceAlpha" type="matrix" values="0 0 0 0 0 0 0 0 0 0 0 0 0 0 0 0 0 0 127 0" result="hardAlpha"/>
<feOffset dy="2.76726"/>
<feGaussianBlur stdDeviation="1.35596"/>
<feColorMatrix type="matrix" values="0 0 0 0 0.105882 0 0 0 0 0.560784 0 0 0 0 0.780392 0 0 0 0.0559306 0"/>
<feBlend mode="normal" in2="BackgroundImageFix" result="effect1_dropShadow_85_3734"/>
<feColorMatrix in="SourceAlpha" type="matrix" values="0 0 0 0 0 0 0 0 0 0 0 0 0 0 0 0 0 0 127 0" result="hardAlpha"/>
<feOffset dy="6.6501"/>
<feGaussianBlur stdDeviation="3.25855"/>
<feColorMatrix type="matrix" values="0 0 0 0 0.105882 0 0 0 0 0.560784 0 0 0 0 0.780392 0 0 0 0.0672788 0"/>
<feBlend mode="normal" in2="effect1_dropShadow_85_3734" result="effect2_dropShadow_85_3734"/>
<feColorMatrix in="SourceAlpha" type="matrix" values="0 0 0 0 0 0 0 0 0 0 0 0 0 0 0 0 0 0 127 0" result="hardAlpha"/>
<feOffset dy="12.5216"/>
<feGaussianBlur stdDeviation="6.13556"/>
<feColorMatrix type="matrix" values="0 0 0 0 0.105882 0 0 0 0 0.560784 0 0 0 0 0.780392 0 0 0 0.0713751 0"/>
<feBlend mode="normal" in2="effect2_dropShadow_85_3734" result="effect3_dropShadow_85_3734"/>
<feColorMatrix in="SourceAlpha" type="matrix" values="0 0 0 0 0 0 0 0 0 0 0 0 0 0 0 0 0 0 127 0" result="hardAlpha"/>
<feOffset dy="22.3363"/>
<feGaussianBlur stdDeviation="10.9448"/>
<feColorMatrix type="matrix" values="0 0 0 0 0.105882 0 0 0 0 0.560784 0 0 0 0 0.780392 0 0 0 0.076624 0"/>
<feBlend mode="normal" in2="effect3_dropShadow_85_3734" result="effect4_dropShadow_85_3734"/>
<feColorMatrix in="SourceAlpha" type="matrix" values="0 0 0 0 0 0 0 0 0 0 0 0 0 0 0 0 0 0 127 0" result="hardAlpha"/>
<feOffset dy="41.7776"/>
<feGaussianBlur stdDeviation="20.471"/>
<feColorMatrix type="matrix" values="0 0 0 0 0.105882 0 0 0 0 0.560784 0 0 0 0 0.780392 0 0 0 0.0916913 0"/>
<feBlend mode="normal" in2="effect4_dropShadow_85_3734" result="effect5_dropShadow_85_3734"/>
<feColorMatrix in="SourceAlpha" type="matrix" values="0 0 0 0 0 0 0 0 0 0 0 0 0 0 0 0 0 0 127 0" result="hardAlpha"/>
<feOffset dy="100"/>
<feGaussianBlur stdDeviation="49"/>
<feColorMatrix type="matrix" values="0 0 0 0 0.105882 0 0 0 0 0.560784 0 0 0 0 0.780392 0 0 0 0.15 0"/>
<feBlend mode="normal" in2="effect5_dropShadow_85_3734" result="effect6_dropShadow_85_3734"/>
<feBlend mode="normal" in="SourceGraphic" in2="effect6_dropShadow_85_3734" result="shape"/>
</filter>
<radialGradient id="paint0_radial_85_3734" cx="0" cy="0" r="1" gradientUnits="userSpaceOnUse" gradientTransform="translate(100.308 -0.000535881) rotate(36.0306) scale(239.179 7286.33)">
<stop stop-color="#9E68F8"/>
<stop offset="1" stop-color="#537BEE"/>
</radialGradient>
<radialGradient id="paint1_radial_85_3734" cx="0" cy="0" r="1" gradientUnits="userSpaceOnUse" gradientTransform="translate(147.897 53.3516) rotate(28.0877) scale(109.73 2918.92)">
<stop stop-color="#9E68F8"/>
<stop offset="1" stop-color="#537BEE"/>
</radialGradient>
</defs>
</svg>
