<svg width="74" height="74" viewBox="0 0 74 74" fill="none" xmlns="http://www.w3.org/2000/svg">
<rect width="74" height="74" rx="37" fill="#F3F5F5"/>
<path d="M31.75 37.5C35.5781 37.5 38.75 34.3828 38.75 30.5C38.75 26.6719 35.5781 23.5 31.75 23.5C27.8672 23.5 24.75 26.6719 24.75 30.5C24.75 34.3828 27.8672 37.5 31.75 37.5ZM34.4844 40.125H28.9609C23.7109 40.125 19.5 44.3906 19.5 49.6406C19.5 50.6797 20.3203 51.5 21.3594 51.5H42.0859C43.125 51.5 44 50.6797 44 49.6406C44 44.3906 39.7344 40.125 34.4844 40.125ZM45.6953 41H41.6484C44.1641 43.0781 45.75 46.1953 45.75 49.6406C45.75 50.3516 45.5312 50.9531 45.2031 51.5H52.75C53.6797 51.5 54.5 50.7344 54.5 49.75C54.5 44.9375 50.5625 41 45.6953 41ZM43.125 37.5C46.4609 37.5 49.25 34.7656 49.25 31.375C49.25 28.0391 46.4609 25.25 43.125 25.25C41.7031 25.25 40.4453 25.7422 39.4609 26.5078C40.0625 27.7109 40.5 29.0781 40.5 30.5C40.5 32.4688 39.8438 34.2734 38.75 35.6953C39.8438 36.8438 41.375 37.5 43.125 37.5Z" fill="#9FC0D0"/>
</svg>
