<svg width="36" height="29" viewBox="0 0 36 29" fill="none" xmlns="http://www.w3.org/2000/svg">
<path d="M12.75 14.5C16.5781 14.5 19.75 11.3828 19.75 7.5C19.75 3.67188 16.5781 0.5 12.75 0.5C8.86719 0.5 5.75 3.67188 5.75 7.5C5.75 11.3828 8.86719 14.5 12.75 14.5ZM15.4844 17.125H9.96094C4.71094 17.125 0.5 21.3906 0.5 26.6406C0.5 27.6797 1.32031 28.5 2.35938 28.5H23.0859C24.125 28.5 25 27.6797 25 26.6406C25 21.3906 20.7344 17.125 15.4844 17.125ZM26.6953 18H22.6484C25.1641 20.0781 26.75 23.1953 26.75 26.6406C26.75 27.3516 26.5312 27.9531 26.2031 28.5H33.75C34.6797 28.5 35.5 27.7344 35.5 26.75C35.5 21.9375 31.5625 18 26.6953 18ZM24.125 14.5C27.4609 14.5 30.25 11.7656 30.25 8.375C30.25 5.03906 27.4609 2.25 24.125 2.25C22.7031 2.25 21.4453 2.74219 20.4609 3.50781C21.0625 4.71094 21.5 6.07812 21.5 7.5C21.5 9.46875 20.8438 11.2734 19.75 12.6953C20.8438 13.8438 22.375 14.5 24.125 14.5Z" fill="#9FC0D0"/>
</svg>
