<svg width="28" height="29" viewBox="0 0 28 29" fill="none" xmlns="http://www.w3.org/2000/svg">
<path d="M16.625 2.25C18.0469 2.25 19.25 3.45312 19.25 4.875C19.25 5.36719 19.6328 5.75 20.125 5.75C20.5625 5.75 21 5.36719 21 4.875C21 2.46875 19.0312 0.5 16.625 0.5C16.1328 0.5 15.75 0.9375 15.75 1.375C15.75 1.86719 16.1328 2.25 16.625 2.25ZM4.375 23.25C2.89844 23.25 1.75 22.1016 1.75 20.625C1.75 20.1875 1.3125 19.75 0.875 19.75C0.382812 19.75 0 20.1875 0 20.625C0 23.0859 1.91406 25 4.375 25C4.8125 25 5.25 24.6172 5.25 24.125C5.25 23.6875 4.8125 23.25 4.375 23.25ZM25.8125 5.75C24.5547 5.75 23.625 6.73438 23.625 7.9375V12.3672L12.7969 1.59375C12.4688 1.26562 11.9766 1.04688 11.5391 1.04688C10.5547 1.04688 9.84375 1.86719 9.84375 2.79688C9.84375 3.23438 10.0078 3.67188 10.3906 4L17.1719 10.8359C17.3359 11 17.4453 11.2188 17.4453 11.4375C17.4453 11.9297 17.0078 12.2578 16.625 12.2578C16.4062 12.2578 16.1328 12.2031 15.9688 11.9844L7.82031 4.05469C7.49219 3.72656 7.05469 3.5625 6.61719 3.5625C5.6875 3.5625 4.92188 4.27344 4.92188 5.3125C4.92188 5.75 5.08594 6.1875 5.41406 6.51562L13.3984 14.5547C13.5625 14.7734 13.6719 14.9922 13.6719 15.2109C13.6719 15.7031 13.2344 16.0312 12.8516 16.0312C12.6328 16.0312 12.4141 15.9219 12.1953 15.7578L5.35938 9.03125C5.03125 8.64844 4.59375 8.48438 4.15625 8.48438C3.11719 8.48438 2.40625 9.30469 2.40625 10.1797C2.40625 10.6172 2.57031 11.1094 2.89844 11.4375L9.67969 18.2188C9.89844 18.4375 9.95312 18.6562 9.95312 18.875C9.95312 19.3125 9.57031 19.6953 9.13281 19.6953C8.91406 19.6953 8.69531 19.5859 8.53125 19.4219L4.15625 15.2109C3.77344 14.8281 3.33594 14.6641 2.89844 14.6641C1.96875 14.6641 1.14844 15.4297 1.14844 16.4141C1.14844 16.8516 1.3125 17.3438 1.64062 17.6719L9.67969 25.7109C11.5938 27.5703 14.0547 28.5 16.5156 28.5C18.9766 28.5 21.4375 27.5703 23.2969 25.7109L24.7734 24.2344C26.8516 22.2109 28 19.4219 28 16.5234V7.9375C28 6.73438 27.0156 5.75 25.8125 5.75Z" fill="#9FC0D0"/>
</svg>
