<svg width="74" height="74" viewBox="0 0 74 74" fill="none" xmlns="http://www.w3.org/2000/svg">
<rect width="74" height="74" rx="37" fill="#F3F5F5"/>
<path d="M39.625 25.25C41.0469 25.25 42.25 26.4531 42.25 27.875C42.25 28.3672 42.6328 28.75 43.125 28.75C43.5625 28.75 44 28.3672 44 27.875C44 25.4688 42.0312 23.5 39.625 23.5C39.1328 23.5 38.75 23.9375 38.75 24.375C38.75 24.8672 39.1328 25.25 39.625 25.25ZM27.375 46.25C25.8984 46.25 24.75 45.1016 24.75 43.625C24.75 43.1875 24.3125 42.75 23.875 42.75C23.3828 42.75 23 43.1875 23 43.625C23 46.0859 24.9141 48 27.375 48C27.8125 48 28.25 47.6172 28.25 47.125C28.25 46.6875 27.8125 46.25 27.375 46.25ZM48.8125 28.75C47.5547 28.75 46.625 29.7344 46.625 30.9375V35.3672L35.7969 24.5938C35.4688 24.2656 34.9766 24.0469 34.5391 24.0469C33.5547 24.0469 32.8438 24.8672 32.8438 25.7969C32.8438 26.2344 33.0078 26.6719 33.3906 27L40.1719 33.8359C40.3359 34 40.4453 34.2188 40.4453 34.4375C40.4453 34.9297 40.0078 35.2578 39.625 35.2578C39.4062 35.2578 39.1328 35.2031 38.9688 34.9844L30.8203 27.0547C30.4922 26.7266 30.0547 26.5625 29.6172 26.5625C28.6875 26.5625 27.9219 27.2734 27.9219 28.3125C27.9219 28.75 28.0859 29.1875 28.4141 29.5156L36.3984 37.5547C36.5625 37.7734 36.6719 37.9922 36.6719 38.2109C36.6719 38.7031 36.2344 39.0312 35.8516 39.0312C35.6328 39.0312 35.4141 38.9219 35.1953 38.7578L28.3594 32.0312C28.0312 31.6484 27.5938 31.4844 27.1562 31.4844C26.1172 31.4844 25.4062 32.3047 25.4062 33.1797C25.4062 33.6172 25.5703 34.1094 25.8984 34.4375L32.6797 41.2188C32.8984 41.4375 32.9531 41.6562 32.9531 41.875C32.9531 42.3125 32.5703 42.6953 32.1328 42.6953C31.9141 42.6953 31.6953 42.5859 31.5312 42.4219L27.1562 38.2109C26.7734 37.8281 26.3359 37.6641 25.8984 37.6641C24.9688 37.6641 24.1484 38.4297 24.1484 39.4141C24.1484 39.8516 24.3125 40.3438 24.6406 40.6719L32.6797 48.7109C34.5938 50.5703 37.0547 51.5 39.5156 51.5C41.9766 51.5 44.4375 50.5703 46.2969 48.7109L47.7734 47.2344C49.8516 45.2109 51 42.4219 51 39.5234V30.9375C51 29.7344 50.0156 28.75 48.8125 28.75Z" fill="#9FC0D0"/>
</svg>
