<svg width="15" height="15" viewBox="0 0 15 15" fill="none" xmlns="http://www.w3.org/2000/svg">
<path d="M8.21094 9.65625L7.28125 10.5586C7.17188 10.6953 7.00781 10.75 6.84375 10.75H5.75V11.8438C5.75 12.2266 5.44922 12.5 5.09375 12.5H4V13.5938C4 13.9766 3.69922 14.25 3.34375 14.25H1.15625C0.773438 14.25 0.5 13.9766 0.5 13.5938V11.4062C0.5 11.2422 0.554688 11.0781 0.691406 10.9414L5.09375 6.53906C4.92969 6.07422 4.875 5.58203 4.875 5.0625C4.875 2.41016 7.00781 0.25 9.6875 0.25C12.3398 0.25 14.5 2.41016 14.5 5.0625C14.5 7.74219 12.3398 9.875 9.6875 9.875C9.16797 9.875 8.67578 9.82031 8.21094 9.65625ZM10.7812 5.0625C11.3828 5.0625 11.875 4.59766 11.875 3.96875C11.875 3.36719 11.3828 2.875 10.7812 2.875C10.1523 2.875 9.6875 3.36719 9.6875 3.96875C9.6875 4.59766 10.1523 5.0625 10.7812 5.0625Z" fill="white"/>
</svg>
