<svg width="93" height="90" viewBox="0 0 93 90" fill="none" xmlns="http://www.w3.org/2000/svg">
<rect width="92.5352" height="90" fill="white"/>
<path d="M3.49999 43.2871C1.614 41.4105 1.614 38.3679 3.49999 36.4913L38.7591 1.40746C40.6451 -0.469152 43.7029 -0.469155 45.5889 1.40746C47.4749 3.28407 47.4749 6.32666 45.5889 8.20328L10.3298 43.2871C8.44377 45.1637 5.38598 45.1637 3.49999 43.2871Z" fill="#E4E4E4"/>
<path d="M30.9146 83.9669C29.0286 82.0903 29.0286 79.0477 30.9146 77.1711L48.0375 60.1333H61.4764V46.7613L66.1738 42.0872C68.0597 40.2106 71.1175 40.2106 73.0035 42.0872C74.8895 43.9639 74.8895 47.0064 73.0035 48.8831L37.7444 83.9669C35.8584 85.8435 32.8006 85.8435 30.9146 83.9669Z" fill="#E4E4E4"/>
<path d="M61.4764 37.7003L73.4055 25.8305C75.2915 23.9539 75.2915 20.9113 73.4055 19.0347C71.5195 17.1581 68.4617 17.1581 66.5757 19.0347L55.689 29.8673H61.4764V37.7003Z" fill="#E4E4E4"/>
<path d="M44.9063 29.8673C44.9995 28.5287 44.5318 27.1586 43.5034 26.1353C41.6174 24.2587 38.5596 24.2587 36.6736 26.1353L32.9229 29.8673H44.9063Z" fill="#E4E4E4"/>
<path d="M31.0592 31.7218V45.3134L8.24427 68.0149C6.35828 69.8915 3.30048 69.8915 1.41449 68.0149C-0.471498 66.1383 -0.471497 63.0957 1.41449 61.2191L31.0592 31.7218Z" fill="#E4E4E4"/>
<path d="M31.0592 54.3952V60.1333H38.9313L38.1464 60.9143C36.2604 62.7909 33.2026 62.7909 31.3166 60.9143C29.5207 59.1274 29.4349 56.2832 31.0592 54.3952Z" fill="#E4E4E4"/>
<path d="M49.0318 88.5925C47.1458 86.7159 47.1458 83.6733 49.0318 81.7967L84.2909 46.7129C86.1769 44.8363 89.2347 44.8363 91.1207 46.7129C93.0067 48.5895 93.0067 51.6321 91.1207 53.5087L55.8616 88.5925C53.9756 90.4691 50.9178 90.4692 49.0318 88.5925Z" fill="#E4E4E4"/>
</svg>
