<svg width="165" height="39" viewBox="0 0 165 39" fill="none" xmlns="http://www.w3.org/2000/svg">
<path d="M52.7102 13.9901V11.4545H64.6562V13.9901H60.2031V26H57.1634V13.9901H52.7102ZM65.4339 26V15.0909H68.3672V16.9943H68.4808C68.6797 16.3172 69.0135 15.8059 69.4822 15.4602C69.951 15.1098 70.4908 14.9347 71.1016 14.9347C71.2531 14.9347 71.4164 14.9441 71.5916 14.9631C71.7668 14.982 71.9207 15.008 72.0533 15.0412V17.7259C71.9112 17.6832 71.7147 17.6454 71.4638 17.6122C71.2128 17.5791 70.9832 17.5625 70.7749 17.5625C70.3298 17.5625 69.9321 17.6596 69.5817 17.8537C69.236 18.0431 68.9614 18.3082 68.7578 18.6491C68.5589 18.9901 68.4595 19.383 68.4595 19.8281V26H65.4339ZM80.6133 21.3551V15.0909H83.6388V26H80.734V24.0185H80.6204C80.3742 24.6577 79.9646 25.1714 79.3917 25.5597C78.8235 25.9479 78.1299 26.142 77.3107 26.142C76.5816 26.142 75.94 25.9763 75.386 25.6449C74.832 25.3134 74.3988 24.8423 74.0863 24.2315C73.7785 23.6207 73.6223 22.8892 73.6175 22.0369V15.0909H76.6431V21.4972C76.6478 22.1411 76.8207 22.6501 77.1616 23.0241C77.5025 23.3982 77.9594 23.5852 78.5323 23.5852C78.8969 23.5852 79.2378 23.5024 79.555 23.3366C79.8723 23.1662 80.128 22.9152 80.3221 22.5838C80.521 22.2524 80.618 21.8428 80.6133 21.3551ZM95.1357 18.2017L92.3658 18.3722C92.3184 18.1354 92.2166 17.9223 92.0604 17.733C91.9041 17.5388 91.6982 17.3849 91.4425 17.2713C91.1915 17.1529 90.8909 17.0938 90.5405 17.0938C90.0717 17.0938 89.6764 17.1932 89.3544 17.392C89.0324 17.5862 88.8714 17.8466 88.8714 18.1733C88.8714 18.4337 88.9756 18.6539 89.1839 18.8338C89.3923 19.0137 89.7498 19.1581 90.2564 19.267L92.2308 19.6648C93.2914 19.8826 94.0821 20.233 94.603 20.7159C95.1238 21.1989 95.3842 21.8333 95.3842 22.6193C95.3842 23.3343 95.1735 23.9616 94.7521 24.5014C94.3355 25.0412 93.7625 25.4626 93.0334 25.7656C92.3089 26.0639 91.4732 26.2131 90.5263 26.2131C89.0821 26.2131 87.9316 25.9124 87.0746 25.3111C86.2223 24.705 85.7228 23.8812 85.576 22.8395L88.5518 22.6832C88.6418 23.1236 88.8596 23.4598 89.2053 23.6918C89.5509 23.919 89.9936 24.0327 90.5334 24.0327C91.0637 24.0327 91.4898 23.9309 91.8118 23.7273C92.1385 23.5189 92.3042 23.2514 92.3089 22.9247C92.3042 22.6501 92.1882 22.4252 91.9609 22.25C91.7337 22.0701 91.3833 21.9328 90.9098 21.8381L89.0206 21.4616C87.9553 21.2486 87.1622 20.8793 86.6413 20.3537C86.1252 19.8281 85.8672 19.1581 85.8672 18.3438C85.8672 17.643 86.0566 17.0393 86.4354 16.5327C86.8189 16.026 87.3563 15.6354 88.0476 15.3608C88.7436 15.0862 89.558 14.9489 90.4908 14.9489C91.8686 14.9489 92.9529 15.2401 93.7436 15.8224C94.5391 16.4048 95.0031 17.1979 95.1357 18.2017ZM103.092 15.0909V17.3636H96.5224V15.0909H103.092ZM98.0138 12.4773H101.039V22.6477C101.039 22.9271 101.082 23.1449 101.167 23.3011C101.252 23.4527 101.371 23.5592 101.522 23.6207C101.679 23.6823 101.859 23.7131 102.062 23.7131C102.204 23.7131 102.346 23.7012 102.488 23.6776C102.63 23.6491 102.739 23.6278 102.815 23.6136L103.291 25.8651C103.139 25.9124 102.926 25.9669 102.652 26.0284C102.377 26.0947 102.043 26.1349 101.65 26.1491C100.921 26.1776 100.282 26.0805 99.7326 25.858C99.1881 25.6354 98.7643 25.2898 98.4613 24.821C98.1583 24.3523 98.0091 23.7604 98.0138 23.0455V12.4773ZM109.195 13.9901V11.4545H121.141V13.9901H116.688V26H113.648V13.9901H109.195ZM121.918 26V15.0909H124.852V16.9943H124.965C125.164 16.3172 125.498 15.8059 125.967 15.4602C126.435 15.1098 126.975 14.9347 127.586 14.9347C127.737 14.9347 127.901 14.9441 128.076 14.9631C128.251 14.982 128.405 15.008 128.538 15.0412V17.7259C128.396 17.6832 128.199 17.6454 127.948 17.6122C127.697 17.5791 127.468 17.5625 127.259 17.5625C126.814 17.5625 126.416 17.6596 126.066 17.8537C125.72 18.0431 125.446 18.3082 125.242 18.6491C125.043 18.9901 124.944 19.383 124.944 19.8281V26H121.918ZM132.9 26.206C132.204 26.206 131.584 26.0852 131.039 25.8438C130.495 25.5975 130.064 25.2353 129.747 24.7571C129.434 24.2741 129.278 23.6728 129.278 22.9531C129.278 22.3471 129.389 21.8381 129.612 21.4261C129.834 21.0142 130.137 20.6828 130.521 20.4318C130.904 20.1809 131.34 19.9915 131.828 19.8636C132.32 19.7358 132.836 19.6458 133.376 19.5938C134.011 19.5275 134.522 19.4659 134.91 19.4091C135.298 19.3475 135.58 19.2576 135.755 19.1392C135.931 19.0208 136.018 18.8456 136.018 18.6136V18.571C136.018 18.1212 135.876 17.7732 135.592 17.527C135.313 17.2808 134.915 17.1577 134.399 17.1577C133.854 17.1577 133.421 17.2784 133.099 17.5199C132.777 17.7566 132.564 18.0549 132.46 18.4148L129.662 18.1875C129.804 17.5246 130.083 16.9517 130.5 16.4688C130.916 15.9811 131.454 15.607 132.112 15.3466C132.775 15.0814 133.542 14.9489 134.413 14.9489C135.019 14.9489 135.599 15.0199 136.153 15.1619C136.712 15.304 137.207 15.5241 137.637 15.8224C138.073 16.1207 138.416 16.5043 138.667 16.973C138.918 17.437 139.044 17.9934 139.044 18.642V26H136.174V24.4872H136.089C135.914 24.8281 135.68 25.1288 135.386 25.3892C135.092 25.6449 134.74 25.8461 134.328 25.9929C133.916 26.1349 133.44 26.206 132.9 26.206ZM133.767 24.1179C134.212 24.1179 134.605 24.0303 134.946 23.8551C135.287 23.6752 135.554 23.4337 135.748 23.1307C135.942 22.8277 136.039 22.4844 136.039 22.1009V20.9432C135.945 21.0047 135.815 21.0616 135.649 21.1136C135.488 21.161 135.306 21.206 135.102 21.2486C134.898 21.2865 134.695 21.322 134.491 21.3551C134.288 21.3835 134.103 21.4096 133.937 21.4332C133.582 21.4853 133.272 21.5682 133.007 21.6818C132.742 21.7955 132.536 21.9493 132.389 22.1435C132.242 22.3329 132.169 22.5696 132.169 22.8537C132.169 23.2656 132.318 23.5805 132.616 23.7983C132.919 24.0114 133.303 24.1179 133.767 24.1179ZM145.411 26.1776C144.582 26.1776 143.832 25.9645 143.159 25.5384C142.492 25.1075 141.962 24.4754 141.569 23.642C141.18 22.804 140.986 21.7765 140.986 20.5597C140.986 19.3097 141.187 18.2704 141.59 17.4418C141.992 16.6084 142.527 15.9858 143.195 15.5739C143.867 15.1572 144.604 14.9489 145.404 14.9489C146.015 14.9489 146.524 15.053 146.931 15.2614C147.343 15.465 147.674 15.7206 147.925 16.0284C148.181 16.3314 148.375 16.6297 148.507 16.9233H148.6V11.4545H151.618V26H148.635V24.2528H148.507C148.365 24.5559 148.164 24.8565 147.904 25.1548C147.648 25.4484 147.314 25.6922 146.902 25.8864C146.495 26.0805 145.998 26.1776 145.411 26.1776ZM146.37 23.7699C146.857 23.7699 147.269 23.6373 147.605 23.3722C147.946 23.1023 148.207 22.7259 148.387 22.2429C148.571 21.7599 148.664 21.1941 148.664 20.5455C148.664 19.8968 148.574 19.3333 148.394 18.8551C148.214 18.3769 147.953 18.0076 147.613 17.7472C147.272 17.4867 146.857 17.3565 146.37 17.3565C145.873 17.3565 145.453 17.4915 145.113 17.7614C144.772 18.0312 144.514 18.4053 144.338 18.8835C144.163 19.3617 144.076 19.9157 144.076 20.5455C144.076 21.1799 144.163 21.741 144.338 22.2287C144.518 22.7116 144.776 23.0904 145.113 23.3651C145.453 23.6349 145.873 23.7699 146.37 23.7699ZM159.077 26.2131C157.955 26.2131 156.989 25.9858 156.18 25.5312C155.375 25.072 154.754 24.4233 154.319 23.5852C153.883 22.7424 153.665 21.7457 153.665 20.5952C153.665 19.473 153.883 18.4882 154.319 17.6406C154.754 16.7931 155.368 16.1326 156.158 15.6591C156.954 15.1856 157.887 14.9489 158.957 14.9489C159.676 14.9489 160.346 15.0649 160.967 15.2969C161.592 15.5241 162.136 15.8674 162.6 16.3267C163.069 16.786 163.433 17.3636 163.694 18.0597C163.954 18.7509 164.085 19.5606 164.085 20.4886V21.3196H154.873V19.4446H161.237C161.237 19.009 161.142 18.6231 160.952 18.2869C160.763 17.9508 160.5 17.688 160.164 17.4986C159.833 17.3045 159.447 17.2074 159.006 17.2074C158.547 17.2074 158.14 17.3139 157.785 17.527C157.434 17.7353 157.16 18.017 156.961 18.3722C156.762 18.7225 156.66 19.1132 156.656 19.544V21.3267C156.656 21.8665 156.755 22.3329 156.954 22.7259C157.157 23.1188 157.444 23.4219 157.813 23.6349C158.183 23.848 158.621 23.9545 159.127 23.9545C159.463 23.9545 159.771 23.9072 160.05 23.8125C160.33 23.7178 160.569 23.5758 160.768 23.3864C160.967 23.197 161.118 22.965 161.222 22.6903L164.021 22.875C163.879 23.5473 163.587 24.1345 163.147 24.6364C162.711 25.1335 162.148 25.5218 161.457 25.8011C160.77 26.0758 159.977 26.2131 159.077 26.2131Z" fill="black"/>
<path d="M1.51293 18.7577C0.69768 17.9445 0.69768 16.6261 1.51293 15.8129L16.7543 0.6099C17.5696 -0.203299 18.8914 -0.203301 19.7066 0.609899C20.5219 1.4231 20.5219 2.74155 19.7066 3.55475L4.46523 18.7577C3.64997 19.5709 2.32819 19.5709 1.51293 18.7577Z" fill="#0B93D5"/>
<path d="M1.51293 18.7577C0.69768 17.9445 0.69768 16.6261 1.51293 15.8129L16.7543 0.6099C17.5696 -0.203299 18.8914 -0.203301 19.7066 0.609899C20.5219 1.4231 20.5219 2.74155 19.7066 3.55475L4.46523 18.7577C3.64997 19.5709 2.32819 19.5709 1.51293 18.7577Z" fill="url(#paint0_radial_115_10)"/>
<path d="M13.3634 36.3857C12.5481 35.5725 12.5481 34.254 13.3634 33.4408L20.7652 26.0576H26.5742V20.2633L28.6048 18.2378C29.42 17.4246 30.7418 17.4246 31.5571 18.2378C32.3723 19.051 32.3723 20.3695 31.5571 21.1827L16.3157 36.3856C15.5004 37.1988 14.1787 37.1989 13.3634 36.3857Z" fill="#0B93D5"/>
<path d="M13.3634 36.3857C12.5481 35.5725 12.5481 34.254 13.3634 33.4408L20.7652 26.0576H26.5742V20.2633L28.6048 18.2378C29.42 17.4246 30.7418 17.4246 31.5571 18.2378C32.3723 19.051 32.3723 20.3695 31.5571 21.1827L16.3157 36.3856C15.5004 37.1988 14.1787 37.1989 13.3634 36.3857Z" fill="url(#paint1_radial_115_10)"/>
<path d="M26.5742 16.3369L31.7308 11.1932C32.5461 10.38 32.5461 9.06156 31.7308 8.24836C30.9156 7.43516 29.5938 7.43516 28.7785 8.24836L24.0727 12.9424H26.5742V16.3369Z" fill="#0B93D5"/>
<path d="M26.5742 16.3369L31.7308 11.1932C32.5461 10.38 32.5461 9.06156 31.7308 8.24836C30.9156 7.43516 29.5938 7.43516 28.7785 8.24836L24.0727 12.9424H26.5742V16.3369Z" fill="url(#paint2_radial_115_10)"/>
<path d="M19.4115 12.9424C19.4518 12.3623 19.2497 11.7687 18.8051 11.3253C17.9899 10.5121 16.6681 10.5121 15.8528 11.3253L14.2316 12.9424H19.4115Z" fill="#0B93D5"/>
<path d="M19.4115 12.9424C19.4518 12.3623 19.2497 11.7687 18.8051 11.3253C17.9899 10.5121 16.6681 10.5121 15.8528 11.3253L14.2316 12.9424H19.4115Z" fill="url(#paint3_radial_115_10)"/>
<path d="M13.4258 13.7462V19.6359L3.56373 29.4731C2.74848 30.2863 1.42669 30.2863 0.611439 29.4731C-0.203813 28.6599 -0.203813 27.3415 0.61144 26.5283L13.4258 13.7462Z" fill="#0B93D5"/>
<path d="M13.4258 13.7462V19.6359L3.56373 29.4731C2.74848 30.2863 1.42669 30.2863 0.611439 29.4731C-0.203813 28.6599 -0.203813 27.3415 0.61144 26.5283L13.4258 13.7462Z" fill="url(#paint4_radial_115_10)"/>
<path d="M13.4258 23.5713V26.0576H16.8289L16.4894 26.3962C15.6742 27.2094 14.3524 27.2094 13.5372 26.3962C12.7609 25.6219 12.7238 24.3895 13.4258 23.5713Z" fill="#0B93D5"/>
<path d="M13.4258 23.5713V26.0576H16.8289L16.4894 26.3962C15.6742 27.2094 14.3524 27.2094 13.5372 26.3962C12.7609 25.6219 12.7238 24.3895 13.4258 23.5713Z" fill="url(#paint5_radial_115_10)"/>
<path d="M21.1949 38.3901C20.3796 37.5769 20.3796 36.2584 21.1949 35.4452L36.4363 20.2423C37.2515 19.4291 38.5733 19.4291 39.3886 20.2423C40.2038 21.0555 40.2038 22.3739 39.3886 23.1871L24.1472 38.3901C23.3319 39.2033 22.0101 39.2033 21.1949 38.3901Z" fill="#0B93D5"/>
<path d="M21.1949 38.3901C20.3796 37.5769 20.3796 36.2584 21.1949 35.4452L36.4363 20.2423C37.2515 19.4291 38.5733 19.4291 39.3886 20.2423C40.2038 21.0555 40.2038 22.3739 39.3886 23.1871L24.1472 38.3901C23.3319 39.2033 22.0101 39.2033 21.1949 38.3901Z" fill="url(#paint6_radial_115_10)"/>
<defs>
<radialGradient id="paint0_radial_115_10" cx="0" cy="0" r="1" gradientUnits="userSpaceOnUse" gradientTransform="translate(0.39216) rotate(39.3135) scale(52.1347 1636.6)">
<stop stop-color="#9E68F8"/>
<stop offset="1" stop-color="#537BEE"/>
</radialGradient>
<radialGradient id="paint1_radial_115_10" cx="0" cy="0" r="1" gradientUnits="userSpaceOnUse" gradientTransform="translate(0.39216) rotate(39.3135) scale(52.1347 1636.6)">
<stop stop-color="#9E68F8"/>
<stop offset="1" stop-color="#537BEE"/>
</radialGradient>
<radialGradient id="paint2_radial_115_10" cx="0" cy="0" r="1" gradientUnits="userSpaceOnUse" gradientTransform="translate(0.39216) rotate(39.3135) scale(52.1347 1636.6)">
<stop stop-color="#9E68F8"/>
<stop offset="1" stop-color="#537BEE"/>
</radialGradient>
<radialGradient id="paint3_radial_115_10" cx="0" cy="0" r="1" gradientUnits="userSpaceOnUse" gradientTransform="translate(0.39216) rotate(39.3135) scale(52.1347 1636.6)">
<stop stop-color="#9E68F8"/>
<stop offset="1" stop-color="#537BEE"/>
</radialGradient>
<radialGradient id="paint4_radial_115_10" cx="0" cy="0" r="1" gradientUnits="userSpaceOnUse" gradientTransform="translate(0.39216) rotate(39.3135) scale(52.1347 1636.6)">
<stop stop-color="#9E68F8"/>
<stop offset="1" stop-color="#537BEE"/>
</radialGradient>
<radialGradient id="paint5_radial_115_10" cx="0" cy="0" r="1" gradientUnits="userSpaceOnUse" gradientTransform="translate(0.39216) rotate(39.3135) scale(52.1347 1636.6)">
<stop stop-color="#9E68F8"/>
<stop offset="1" stop-color="#537BEE"/>
</radialGradient>
<radialGradient id="paint6_radial_115_10" cx="0" cy="0" r="1" gradientUnits="userSpaceOnUse" gradientTransform="translate(0.39216) rotate(39.3135) scale(52.1347 1636.6)">
<stop stop-color="#9E68F8"/>
<stop offset="1" stop-color="#537BEE"/>
</radialGradient>
</defs>
</svg>
