<svg width="518" height="117" viewBox="0 0 518 117" fill="none" xmlns="http://www.w3.org/2000/svg">
<g opacity="0.5">
<path d="M7.62939e-06 27.2172V0.180557H2.4699V12.5768H17.8175V0.180557H20.2874V27.2172H17.8175V14.7946H2.4699V27.2172H7.62939e-06Z" fill="#342C5D"/>
<path d="M35.1728 27.6397C33.2797 27.6397 31.6419 27.1996 30.2594 26.3195C28.877 25.4306 27.8072 24.2029 27.0499 22.6363C26.3015 21.0609 25.9272 19.2479 25.9272 17.1973C25.9272 15.1555 26.3015 13.3425 27.0499 11.7583C27.8072 10.1653 28.8506 8.91995 30.1802 8.02225C31.5186 7.11575 33.0639 6.6625 34.8162 6.6625C35.9168 6.6625 36.9779 6.86492 37.9993 7.26976C39.0207 7.66581 39.9365 8.27748 40.7466 9.10477C41.5654 9.92327 42.2126 10.9574 42.6881 12.2071C43.1636 13.4481 43.4013 14.9178 43.4013 16.6164V17.7782H27.5518V15.7055H40.9975C40.9975 14.403 40.7333 13.2324 40.205 12.1939C39.6855 11.1466 38.9591 10.3193 38.0257 9.71204C37.1012 9.10477 36.0313 8.80114 34.8162 8.80114C33.5306 8.80114 32.3991 9.14438 31.4217 9.83086C30.4443 10.5173 29.6783 11.4238 29.1236 12.5504C28.5776 13.6769 28.3003 14.909 28.2915 16.2468V17.4877C28.2915 19.0983 28.5688 20.5065 29.1236 21.7122C29.6871 22.9091 30.484 23.8377 31.5142 24.4977C32.5444 25.1578 33.7639 25.4878 35.1728 25.4878C36.1326 25.4878 36.9735 25.3382 37.6955 25.039C38.4264 24.7398 39.0383 24.3393 39.5314 23.8377C40.0333 23.3272 40.4119 22.7683 40.6673 22.1611L42.8994 22.8871C42.5913 23.7408 42.085 24.5285 41.3805 25.2502C40.6849 25.9719 39.8132 26.5528 38.7654 26.9928C37.7263 27.4241 36.5288 27.6397 35.1728 27.6397Z" fill="#342C5D"/>
<path d="M60.6807 34.8213C60.214 34.8213 59.7781 34.7773 59.3731 34.6893C58.968 34.6013 58.6466 34.5045 58.4089 34.3989L59.0429 32.3262C59.8442 32.5726 60.5574 32.6607 61.1826 32.5902C61.8077 32.5286 62.3625 32.247 62.8468 31.7454C63.3311 31.2525 63.7625 30.4956 64.1411 29.4747L64.8808 27.4153L57.4183 6.93973H59.9674L65.9902 24.1149H66.1752L72.198 6.93973H74.7471L66.162 30.4252C65.8009 31.4021 65.3563 32.2162 64.8279 32.8675C64.2996 33.5276 63.6877 34.016 62.9921 34.3328C62.3052 34.6585 61.5348 34.8213 60.6807 34.8213Z" fill="#342C5D"/>
<path d="M79.3732 27.2172V6.93973H94.7341V27.2172H92.3698V9.15758H81.7374V27.2172H79.3732Z" fill="#342C5D"/>
<path d="M101.87 34.8213C101.403 34.8213 100.967 34.7773 100.562 34.6893C100.157 34.6013 99.8356 34.5045 99.5979 34.3989L100.232 32.3262C101.033 32.5726 101.746 32.6607 102.372 32.5902C102.997 32.5286 103.551 32.247 104.036 31.7454C104.52 31.2525 104.952 30.4956 105.33 29.4747L106.07 27.4153L98.6073 6.93973H101.156L107.179 24.1149H107.364L113.387 6.93973H115.936L107.351 30.4252C106.99 31.4021 106.545 32.2162 106.017 32.8675C105.489 33.5276 104.877 34.016 104.181 34.3328C103.494 34.6585 102.724 34.8213 101.87 34.8213Z" fill="#342C5D"/>
<path d="M127.734 27.6397C125.92 27.6397 124.34 27.1864 122.992 26.2799C121.654 25.3734 120.615 24.1325 119.875 22.5571C119.136 20.9817 118.766 19.1863 118.766 17.1709C118.766 15.1379 119.14 13.3293 119.889 11.7451C120.646 10.1609 121.694 8.91995 123.032 8.02225C124.371 7.11575 125.925 6.6625 127.695 6.6625C129.051 6.6625 130.279 6.92653 131.38 7.45459C132.48 7.97384 133.387 8.70873 134.1 9.65924C134.822 10.6009 135.276 11.7011 135.461 12.9596H133.083C132.837 11.8155 132.242 10.8386 131.3 10.0289C130.367 9.21039 129.178 8.80114 127.734 8.80114C126.44 8.80114 125.295 9.15318 124.3 9.85726C123.305 10.5525 122.526 11.525 121.962 12.7748C121.408 14.0157 121.13 15.4547 121.13 17.0917C121.13 18.7375 121.403 20.194 121.949 21.4614C122.495 22.7199 123.261 23.7056 124.247 24.4185C125.242 25.1314 126.405 25.4878 127.734 25.4878C128.632 25.4878 129.451 25.3206 130.191 24.9862C130.939 24.6429 131.564 24.1589 132.066 23.534C132.577 22.9091 132.92 22.1655 133.097 21.303H135.474C135.298 22.5263 134.862 23.6176 134.166 24.5769C133.48 25.5274 132.586 26.2755 131.485 26.8212C130.393 27.3669 129.143 27.6397 127.734 27.6397Z" fill="#342C5D"/>
<path d="M138.835 9.15758V6.93973H154.685V9.15758H147.975V27.2172H145.624V9.15758H138.835Z" fill="#342C5D"/>
<path d="M162.005 23.8773L172.717 6.93973H175.53V27.2172H173.179V10.2797L162.507 27.2172H159.654V6.93973H162.005V23.8773Z" fill="#342C5D"/>
<path d="M178.898 9.15758V6.93973H194.748V9.15758H188.038V27.2172H185.687V9.15758H178.898Z" fill="#342C5D"/>
<path d="M206.866 27.6397C204.973 27.6397 203.335 27.1996 201.953 26.3195C200.571 25.4306 199.501 24.2029 198.743 22.6363C197.995 21.0609 197.621 19.2479 197.621 17.1973C197.621 15.1555 197.995 13.3425 198.743 11.7583C199.501 10.1653 200.544 8.91995 201.874 8.02225C203.212 7.11575 204.757 6.6625 206.51 6.6625C207.61 6.6625 208.671 6.86492 209.693 7.26976C210.714 7.66581 211.63 8.27748 212.44 9.10477C213.259 9.92327 213.906 10.9574 214.382 12.2071C214.857 13.4481 215.095 14.9178 215.095 16.6164V17.7782H199.245V15.7055H212.691C212.691 14.403 212.427 13.2324 211.899 12.1939C211.379 11.1466 210.653 10.3193 209.719 9.71204C208.795 9.10477 207.725 8.80114 206.51 8.80114C205.224 8.80114 204.093 9.14438 203.115 9.83086C202.138 10.5173 201.372 11.4238 200.817 12.5504C200.271 13.6769 199.994 14.909 199.985 16.2468V17.4877C199.985 19.0983 200.262 20.5065 200.817 21.7122C201.381 22.9091 202.177 23.8377 203.208 24.4977C204.238 25.1578 205.457 25.4878 206.866 25.4878C207.826 25.4878 208.667 25.3382 209.389 25.039C210.12 24.7398 210.732 24.3393 211.225 23.8377C211.727 23.3272 212.105 22.7683 212.361 22.1611L214.593 22.8871C214.285 23.7408 213.778 24.5285 213.074 25.2502C212.378 25.9719 211.507 26.5528 210.459 26.9928C209.42 27.4241 208.222 27.6397 206.866 27.6397Z" fill="#342C5D"/>
</g>
<path d="M23.501 106.978C23.501 108.654 23.1218 110.098 22.3636 111.309C21.5979 112.512 20.5432 113.437 19.1994 114.084C17.8556 114.73 16.3167 115.054 14.5825 115.054C12.8259 115.054 11.2757 114.723 9.93189 114.061C8.58061 113.399 7.52587 112.467 6.76765 111.264C6.00944 110.061 5.63033 108.643 5.63033 107.011C5.63033 105.695 5.87431 104.522 6.36227 103.492C6.84272 102.462 7.51836 101.631 8.38918 100.999C9.26 100.36 10.2772 99.9805 11.4408 99.8602L11.4408 103.143C10.63 103.323 9.93189 103.737 9.34634 104.383C8.76078 105.022 8.46801 105.88 8.46801 106.955C8.46801 107.895 8.71574 108.718 9.21121 109.425C9.69917 110.125 10.3973 110.67 11.3057 111.061C12.2065 111.452 13.2725 111.647 14.5037 111.647C15.7649 111.647 16.8534 111.456 17.7693 111.072C18.6852 110.689 19.3946 110.147 19.8976 109.448C20.4005 108.741 20.652 107.91 20.652 106.955C20.652 106.316 20.5357 105.737 20.3029 105.218C20.0627 104.692 19.7211 104.252 19.2782 103.898C18.8353 103.537 18.3023 103.285 17.6792 103.143L17.6792 99.8602C18.7978 99.9805 19.7962 100.345 20.6745 100.954C21.5529 101.563 22.2435 102.379 22.7465 103.402C23.2495 104.417 23.501 105.609 23.501 106.978Z" fill="#19B4FF"/>
<path d="M23.1519 96.2536L5.85554 96.2536L5.85554 89.0685C5.85554 87.1134 6.27218 85.5643 7.10547 84.4213C7.93125 83.2783 9.05356 82.7068 10.4724 82.7068C11.4859 82.7068 12.2891 83.0302 12.8822 83.6769C13.4752 84.3236 13.8731 85.1808 14.0758 86.2486C14.1659 85.4741 14.3986 84.7635 14.774 84.1168C15.1418 83.4701 15.6373 82.9512 16.2604 82.5602C16.8835 82.1616 17.6267 81.9624 18.49 81.9624C19.4058 81.9624 20.2166 82.1992 20.9223 82.673C21.6204 83.1467 22.1684 83.8348 22.5663 84.7371C22.9567 85.632 23.1519 86.7111 23.1519 87.9744L23.1519 96.2536ZM20.3367 93.084L20.3367 87.9744C20.3367 87.1397 20.1378 86.4855 19.7399 86.0117C19.342 85.538 18.8015 85.3011 18.1184 85.3011C17.3151 85.3011 16.6845 85.538 16.2266 86.0117C15.7611 86.4855 15.5284 87.1397 15.5284 87.9744L15.5284 93.084L20.3367 93.084ZM13.0623 93.084L13.0623 89.0347C13.0623 88.403 12.9723 87.8616 12.7921 87.4104C12.6119 86.9517 12.3567 86.602 12.0264 86.3614C11.6885 86.1132 11.2907 85.9892 10.8327 85.9892C10.1646 85.9892 9.64287 86.2636 9.26751 86.8126C8.89216 87.3615 8.70448 88.1135 8.70448 89.0685L8.70448 93.084L13.0623 93.084Z" fill="#19B4FF"/>
<path d="M23.501 70.9648C23.501 72.5891 23.1294 74.0065 22.3862 75.2172C21.643 76.4279 20.6032 77.3678 19.267 78.0371C17.9307 78.7063 16.3692 79.041 14.5825 79.041C12.7883 79.041 11.2194 78.7063 9.87558 78.0371C8.53182 77.3678 7.48833 76.4279 6.74513 75.2172C6.00193 74.0065 5.63033 72.5891 5.63033 70.9648C5.63033 69.3406 6.00193 67.9231 6.74513 66.7124C7.48833 65.5017 8.53181 64.5618 9.87558 63.8925C11.2194 63.2233 12.7883 62.8887 14.5825 62.8887C16.3692 62.8887 17.9307 63.2233 19.267 63.8925C20.6032 64.5618 21.643 65.5017 22.3862 66.7124C23.1294 67.9231 23.501 69.3406 23.501 70.9648ZM20.6745 70.9535C20.6745 69.9008 20.3968 69.0285 19.8412 68.3367C19.2857 67.6449 18.5463 67.1335 17.6229 66.8027C16.6995 66.4643 15.6823 66.2951 14.5713 66.2951C13.4677 66.2951 12.4543 66.4643 11.5309 66.8027C10.6 67.1335 9.85306 67.6449 9.29003 68.3367C8.727 69.0285 8.44548 69.9008 8.44548 70.9535C8.44548 72.0138 8.727 72.8936 9.29003 73.5929C9.85306 74.2848 10.6 74.7999 11.5309 75.1382C12.4543 75.4691 13.4677 75.6345 14.5713 75.6345C15.6823 75.6345 16.6995 75.4691 17.6229 75.1382C18.5463 74.7999 19.2857 74.2848 19.8412 73.5929C20.3968 72.8936 20.6745 72.0138 20.6745 70.9535Z" fill="#19B4FF"/>
<path d="M18.4337 55.8192L5.85554 48.1829L5.85554 44.5509L23.1519 44.5509L23.1519 47.8558L10.5625 47.8558L23.1519 55.4582L23.1519 59.1241L5.85554 59.1241L5.85554 55.8192L18.4337 55.8192ZM4.76949e-06 49.6267L4.6482e-06 46.8519C1.2687 46.8519 2.30093 47.3031 3.09668 48.2055C3.88493 49.1003 4.27905 50.311 4.27905 51.8375C4.27905 53.3565 3.88493 54.5634 3.09668 55.4582C2.30093 56.3531 1.2687 56.8005 5.08306e-06 56.8005L4.96227e-06 54.037C0.563038 54.037 1.06226 53.8716 1.49767 53.5407C1.92557 53.2099 2.13953 52.6421 2.13953 51.8375C2.13953 51.0479 1.92557 50.484 1.49767 50.1456C1.06977 49.7997 0.570545 49.6267 4.76949e-06 49.6267Z" fill="#19B4FF"/>
<path d="M35.2514 116.033V39.6549H56.6924V48.0111H45.5716V107.707H56.6924V116.033H35.2514Z" fill="#19B4FF"/>
<path d="M83.553 41.3983H104.075L118.191 76.2659H118.902L133.018 41.3983H153.54V102.958H137.408V67.3686H136.933L123.41 102.477H113.683L100.16 67.1282H99.6856V102.958H83.553V41.3983Z" fill="#19B4FF"/>
<path d="M220.191 72.1779C220.191 79.0312 218.876 84.8124 216.247 89.5216C213.617 94.2107 210.069 97.7676 205.601 100.192C201.132 102.597 196.15 103.799 190.654 103.799C185.118 103.799 180.117 102.587 175.648 100.162C171.2 97.7175 167.661 94.1505 165.032 89.4615C162.422 84.7523 161.117 78.9912 161.117 72.1779C161.117 65.3247 162.422 59.5535 165.032 54.8644C167.661 50.1553 171.2 46.5984 175.648 44.1937C180.117 41.769 185.118 40.5566 190.654 40.5566C196.15 40.5566 201.132 41.769 205.601 44.1937C210.069 46.5984 213.617 50.1553 216.247 54.8644C218.876 59.5535 220.191 65.3247 220.191 72.1779ZM203.228 72.1779C203.228 68.4908 202.744 65.3848 201.775 62.8599C200.826 60.3149 199.412 58.3912 197.534 57.0887C195.676 55.7661 193.382 55.1048 190.654 55.1048C187.926 55.1048 185.623 55.7661 183.744 57.0887C181.886 58.3912 180.472 60.3149 179.504 62.8599C178.555 65.3848 178.08 68.4908 178.08 72.1779C178.08 75.8651 178.555 78.9811 179.504 81.5261C180.472 84.051 181.886 85.9747 183.744 87.2973C185.623 88.5998 187.926 89.251 190.654 89.251C193.382 89.251 195.676 88.5998 197.534 87.2973C199.412 85.9747 200.826 84.051 201.775 81.5261C202.744 78.9811 203.228 75.8651 203.228 72.1779Z" fill="#19B4FF"/>
<path d="M227.82 41.3983H248.342L262.458 76.2659H263.169L277.286 41.3983H297.807V102.958H281.675V67.3686H281.2L267.677 102.477H257.95L244.427 67.1282H243.953V102.958H227.82V41.3983Z" fill="#19B4FF"/>
<path d="M305.621 102.958V41.3983H349.393V54.8644H322.11V65.4449H347.139V78.911H322.11V89.4915H349.274V102.958H305.621Z" fill="#19B4FF"/>
<path d="M357.571 102.958V41.3983H374.059V65.4449H395.886V41.3983H412.374V102.958H395.886V78.911H374.059V102.958H357.571Z" fill="#19B4FF"/>
<path d="M418.543 54.8644V41.3983H471.329V54.8644H453.062V102.958H436.81V54.8644H418.543Z" fill="#19B4FF"/>
<path d="M518 39.6549V116.033H496.559V107.707H507.68V48.0111H496.559V39.6549H518Z" fill="#19B4FF"/>
</svg>
