<svg width="30" height="29" viewBox="0 0 30 29" fill="none" xmlns="http://www.w3.org/2000/svg">
<path d="M19.8359 8.75781L27.6562 9.90625C28.3125 10.0156 28.8594 10.4531 29.0781 11.1094C29.2969 11.7109 29.1328 12.4219 28.6406 12.8594L22.9531 18.4922L24.3203 26.4766C24.4297 27.1328 24.1562 27.7891 23.6094 28.1719C23.0625 28.6094 22.3516 28.6094 21.75 28.3359L14.75 24.5625L7.69531 28.3359C7.14844 28.6094 6.38281 28.6094 5.89062 28.1719C5.34375 27.7891 5.07031 27.1328 5.17969 26.4766L6.49219 18.4922L0.804688 12.8594C0.3125 12.4219 0.148438 11.7109 0.367188 11.1094C0.585938 10.4531 1.13281 10.0156 1.78906 9.90625L9.66406 8.75781L13.1641 1.48438C13.4375 0.882812 14.0391 0.5 14.75 0.5C15.4062 0.5 16.0078 0.882812 16.2812 1.48438L19.8359 8.75781Z" fill="#9FC0D0"/>
</svg>
