<svg width="34" height="29" viewBox="0 0 34 29" fill="none" xmlns="http://www.w3.org/2000/svg">
<path d="M32.2812 5.03906C32.1172 4.4375 31.5703 4 30.9688 4H25.4453C25.5 3.34375 25.5 2.74219 25.4453 2.19531C25.4453 1.26562 24.6797 0.5 23.6953 0.5H9.75C8.76562 0.5 8 1.26562 8 2.19531C7.94531 2.74219 7.94531 3.34375 8 4H2.47656C1.875 4 1.32812 4.4375 1.16406 5.03906C1.16406 5.20312 0.125 9.6875 3.02344 13.9531C5.04688 17.0156 8.49219 19.1484 13.25 20.4062C14.2891 20.6797 14.9453 21.6094 14.9453 22.6484C15 23.9609 13.9062 25 12.5938 25H12.375C10.8984 25 9.75 26.2031 9.75 27.625C9.75 28.1172 10.1328 28.5 10.5703 28.5H22.7656C23.2578 28.5 23.5859 28.1172 23.5859 27.625C23.5859 26.2031 22.3828 25 20.9609 25H20.6875C19.375 25 18.3359 23.9609 18.3359 22.6484C18.3359 21.6094 19.0469 20.6797 20.0312 20.4062C24.7891 19.1484 28.2344 17.0156 30.3125 13.9531C33.3203 9.6875 32.2812 5.20312 32.2812 5.03906ZM5.21094 12.5312C3.67969 10.2891 3.57031 7.9375 3.625 6.625H8C8.32812 9.90625 9.14844 13.8438 11.1719 17.0156C8.49219 15.9219 6.46875 14.4453 5.21094 12.5312ZM28.2344 12.5312C26.9766 14.4453 24.9531 15.9219 22.2734 17.0156C24.2969 13.8438 25.1172 9.90625 25.4453 6.625H29.8203C29.875 7.9375 29.7656 10.2891 28.2344 12.5312Z" fill="#9FC0D0"/>
</svg>
